<svg width="550" height="550" viewBox="0 0 550 550" fill="none" xmlns="http://www.w3.org/2000/svg">
<rect width="550" height="550" fill="#3C342E"/>
<rect x="25" y="25" width="500" height="500" fill="#FFD6B0"/>
<ellipse cx="68.1689" cy="77.1694" rx="5.21822" ry="5.68182" fill="#F5C89D"/>
<ellipse cx="126.044" cy="77.1694" rx="5.21822" ry="5.68182" fill="#F5C89D"/>
<ellipse cx="102.324" cy="119.525" rx="5.21822" ry="5.68182" fill="#F5C89D"/>
<ellipse cx="52.0398" cy="147.417" rx="5.21822" ry="5.68182" fill="#F5C89D"/>
<ellipse cx="102.324" cy="175.31" rx="5.21822" ry="5.68182" fill="#F5C89D"/>
<ellipse cx="161.148" cy="130.888" rx="5.21822" ry="5.68182" fill="#F5C89D"/>
<ellipse cx="161.148" cy="193.905" rx="5.21822" ry="5.68182" fill="#F5C89D"/>
<ellipse cx="63.425" cy="226.963" rx="5.21822" ry="5.68182" fill="#F5C89D"/>
<ellipse cx="497.96" cy="397.417" rx="5.21822" ry="5.68182" fill="#F5C89D"/>
<ellipse cx="497.96" cy="460.434" rx="5.21822" ry="5.68182" fill="#F5C89D"/>
<ellipse cx="400.237" cy="493.492" rx="5.21822" ry="5.68182" fill="#F5C89D"/>
<ellipse cx="366.082" cy="448.037" rx="5.21822" ry="5.68182" fill="#F5C89D"/>
<ellipse cx="366.082" cy="511.054" rx="5.21822" ry="5.68182" fill="#F5C89D"/>
<ellipse cx="68.1689" cy="510.021" rx="5.21822" ry="5.68182" fill="#F5C89D"/>
<ellipse cx="38.7571" cy="460.434" rx="5.21822" ry="5.68182" fill="#F5C89D"/>
<ellipse cx="102.324" cy="402.583" rx="5.21822" ry="5.68182" fill="#F5C89D"/>
<ellipse cx="96.6319" cy="281.715" rx="5.21822" ry="5.68182" fill="#F5C89D"/>
<ellipse cx="265.512" cy="283.781" rx="5.21822" ry="5.68182" fill="#F5C89D"/>
<ellipse cx="404.981" cy="147.417" rx="5.21822" ry="5.68182" fill="#F5C89D"/>
<ellipse cx="497.96" cy="112.293" rx="5.21822" ry="5.68182" fill="#F5C89D"/>
<ellipse cx="291.129" cy="43.0785" rx="5.21822" ry="5.68182" fill="#F5C89D"/>
<ellipse cx="465.702" cy="505.888" rx="5.21822" ry="5.68182" fill="#F5C89D"/>
<ellipse cx="298.719" cy="510.021" rx="5.21822" ry="5.68182" fill="#F5C89D"/>
<ellipse cx="514.089" cy="217.665" rx="5.21822" ry="5.68182" fill="#F5C89D"/>
<ellipse cx="207.638" cy="463.533" rx="5.21822" ry="5.68182" fill="#F5C89D"/>
<ellipse cx="315.797" cy="217.665" rx="5.21822" ry="5.68182" fill="#F5C89D"/>
<ellipse cx="407.827" cy="39.9793" rx="5.21822" ry="5.68182" fill="#F5C89D"/>
<ellipse cx="514.089" cy="51.343" rx="5.21822" ry="5.68182" fill="#F5C89D"/>
<ellipse cx="457.163" cy="117.459" rx="5.21822" ry="5.68182" fill="#F5C89D"/>
<ellipse cx="156.404" cy="43.0785" rx="5.21822" ry="5.68182" fill="#F5C89D"/>
<ellipse cx="213.33" cy="111.26" rx="5.21822" ry="5.68182" fill="#F5C89D"/>
<ellipse cx="33.0645" cy="43.0785" rx="5.21822" ry="5.68182" fill="#F5C89D"/>
<ellipse cx="444.829" cy="372.624" rx="5.21822" ry="5.68182" fill="#F5C89D"/>
<ellipse cx="508.397" cy="281.715" rx="5.21822" ry="5.68182" fill="#F5C89D"/>
<ellipse cx="98.5294" cy="37.9132" rx="5.21822" ry="5.68182" fill="#F5C89D"/>
<ellipse cx="136.48" cy="301.343" rx="5.21822" ry="5.68182" fill="#F5C89D"/>
<ellipse cx="141.224" cy="238.326" rx="5.21822" ry="5.68182" fill="#F5C89D"/>
<ellipse cx="52.0398" cy="312.707" rx="5.21822" ry="5.68182" fill="#F5C89D"/>
<ellipse cx="215.228" cy="65.8058" rx="5.21822" ry="5.68182" fill="#F5C89D"/>
<ellipse cx="252.23" cy="113.326" rx="5.21822" ry="5.68182" fill="#F5C89D"/>
<ellipse cx="220.92" cy="158.781" rx="5.21822" ry="5.68182" fill="#F5C89D"/>
<ellipse cx="241.793" cy="226.963" rx="5.21822" ry="5.68182" fill="#F5C89D"/>
<ellipse rx="5.67307" ry="5.22773" transform="matrix(-0.128971 -0.991648 0.98832 -0.152392 484.681 168.21)" fill="#F5C89D"/>
<ellipse rx="5.67307" ry="5.22773" transform="matrix(-0.128971 -0.991648 0.98832 -0.152392 317.426 112.617)" fill="#F5C89D"/>
<ellipse rx="5.67307" ry="5.22773" transform="matrix(-0.128971 -0.991648 0.98832 -0.152392 355.45 66.063)" fill="#F5C89D"/>
<ellipse rx="5.67307" ry="5.22773" transform="matrix(-0.128971 -0.991648 0.98832 -0.152392 401.173 93.4438)" fill="#F5C89D"/>
<ellipse rx="5.67307" ry="5.22773" transform="matrix(-0.128971 -0.991648 0.98832 -0.152392 460.247 61.3811)" fill="#F5C89D"/>
<ellipse cx="204.791" cy="275.517" rx="5.21822" ry="5.68182" fill="#F5C89D"/>
<ellipse rx="5.6527" ry="5.24975" transform="matrix(0.235933 -0.971769 0.960982 0.276612 297.849 319.431)" fill="#F5C89D"/>
<ellipse rx="5.6527" ry="5.24975" transform="matrix(0.235933 -0.971769 0.960982 0.276612 309.763 379.493)" fill="#F5C89D"/>
<ellipse rx="5.6527" ry="5.24975" transform="matrix(0.235933 -0.971769 0.960982 0.276612 347.38 333.688)" fill="#F5C89D"/>
<ellipse rx="5.6527" ry="5.24975" transform="matrix(0.235933 -0.971769 0.960982 0.276612 322.972 260.413)" fill="#F5C89D"/>
<ellipse rx="5.6527" ry="5.24975" transform="matrix(0.235933 -0.971769 0.960982 0.276612 378.925 276.518)" fill="#F5C89D"/>
<ellipse rx="5.6527" ry="5.24975" transform="matrix(0.235933 -0.971769 0.960982 0.276612 383.301 387.838)" fill="#F5C89D"/>
<ellipse rx="5.6527" ry="5.24975" transform="matrix(0.235933 -0.971769 0.960982 0.276612 468.015 329.945)" fill="#F5C89D"/>
<ellipse rx="5.6527" ry="5.24975" transform="matrix(0.235933 -0.971769 0.960982 0.276612 413.275 308.845)" fill="#F5C89D"/>
<ellipse rx="5.6527" ry="5.24975" transform="matrix(0.235933 -0.971769 0.960982 0.276612 456.524 421.737)" fill="#F5C89D"/>
<ellipse rx="5.6527" ry="5.24975" transform="matrix(0.235933 -0.971769 0.960982 0.276612 443.143 459.631)" fill="#F5C89D"/>
<ellipse rx="5.6527" ry="5.24975" transform="matrix(0.235933 -0.971769 0.960982 0.276612 279.007 186.85)" fill="#F5C89D"/>
<ellipse rx="5.6527" ry="5.24975" transform="matrix(0.235933 -0.971769 0.960982 0.276612 330.657 160.044)" fill="#F5C89D"/>
<ellipse rx="5.6527" ry="5.24975" transform="matrix(0.235933 -0.971769 0.960982 0.276612 363.015 204.62)" fill="#F5C89D"/>
<ellipse rx="5.6527" ry="5.24975" transform="matrix(0.235933 -0.971769 0.960982 0.276612 428.888 200.074)" fill="#F5C89D"/>
<ellipse rx="5.6527" ry="5.24975" transform="matrix(0.235933 -0.971769 0.960982 0.276612 462.543 251.434)" fill="#F5C89D"/>
<ellipse rx="5.56043" ry="5.34738" transform="matrix(0.487681 0.873022 -0.833735 0.552165 228.858 327.488)" fill="#F5C89D"/>
<ellipse rx="5.56043" ry="5.34738" transform="matrix(0.487681 0.873022 -0.833735 0.552165 180.841 295.204)" fill="#F5C89D"/>
<ellipse rx="5.56043" ry="5.34738" transform="matrix(0.487681 0.873022 -0.833735 0.552165 185.086 356.477)" fill="#F5C89D"/>
<ellipse rx="5.56043" ry="5.34738" transform="matrix(0.487681 0.873022 -0.833735 0.552165 250.51 388.115)" fill="#F5C89D"/>
<ellipse rx="5.56043" ry="5.34738" transform="matrix(0.487681 0.873022 -0.833735 0.552165 201.064 420.862)" fill="#F5C89D"/>
<ellipse rx="5.56043" ry="5.34738" transform="matrix(0.487681 0.873022 -0.833735 0.552165 124.341 347.132)" fill="#F5C89D"/>
<ellipse rx="5.56043" ry="5.34738" transform="matrix(0.487681 0.873022 -0.833735 0.552165 103.942 453.746)" fill="#F5C89D"/>
<ellipse rx="5.56043" ry="5.34738" transform="matrix(0.487681 0.873022 -0.833735 0.552165 155.854 425.412)" fill="#F5C89D"/>
<ellipse rx="5.56043" ry="5.34738" transform="matrix(0.487681 0.873022 -0.833735 0.552165 51.1453 381.099)" fill="#F5C89D"/>
<ellipse rx="5.56043" ry="5.34738" transform="matrix(0.487681 0.873022 -0.833735 0.552165 329.681 404.603)" fill="#F5C89D"/>
<ellipse rx="5.56043" ry="5.34738" transform="matrix(0.487681 0.873022 -0.833735 0.552165 311.622 463.72)" fill="#F5C89D"/>
<ellipse rx="5.56043" ry="5.34738" transform="matrix(0.487681 0.873022 -0.833735 0.552165 259.686 458.214)" fill="#F5C89D"/>
<ellipse rx="5.56043" ry="5.34738" transform="matrix(0.487681 0.873022 -0.833735 0.552165 217.033 513.063)" fill="#F5C89D"/>
<ellipse rx="5.56043" ry="5.34738" transform="matrix(0.487681 0.873022 -0.833735 0.552165 159.706 503.873)" fill="#F5C89D"/>
<path fill-rule="evenodd" clip-rule="evenodd" d="M188 68H71V185H173V170H188V68Z" fill="#FF961C"/>
<path d="M173 185V170H188L173 185Z" fill="#820623"/>
<path fill-rule="evenodd" clip-rule="evenodd" d="M336 68H219V185H321V170H336V68Z" fill="#FF961C"/>
<path d="M321 185V170H336L321 185Z" fill="#820623"/>
<path fill-rule="evenodd" clip-rule="evenodd" d="M486 68H369V185H471V170H486V68Z" fill="#FF961C"/>
<path d="M471 185V170H486L471 185Z" fill="#820623"/>
<path fill-rule="evenodd" clip-rule="evenodd" d="M188 217H71V334H173V319H188V217Z" fill="#FF961C"/>
<path d="M173 334V319H188L173 334Z" fill="#820623"/>
<path fill-rule="evenodd" clip-rule="evenodd" d="M336 217H219V334H321V319H336V217Z" fill="#FF961C"/>
<path d="M321 334V319H336L321 334Z" fill="#820623"/>
<path fill-rule="evenodd" clip-rule="evenodd" d="M486 217H369V334H471V319H486V217Z" fill="#FF961C"/>
<path d="M471 334V319H486L471 334Z" fill="#820623"/>
<path fill-rule="evenodd" clip-rule="evenodd" d="M188 365H71V482H173V467H188V365Z" fill="#FF961C"/>
<path d="M173 482V467H188L173 482Z" fill="#820623"/>
<path fill-rule="evenodd" clip-rule="evenodd" d="M336 365H219V482H321V467H336V365Z" fill="#FF961C"/>
<path d="M321 482V467H336L321 482Z" fill="#820623"/>
<path fill-rule="evenodd" clip-rule="evenodd" d="M486 365H369V482H471V467H486V365Z" fill="#FF961C"/>
<path d="M471 482V467H486L471 482Z" fill="#820623"/>
<path d="M130.24 123.64C130.28 123.8 130.3 123.94 130.3 124.06C130.3 124.22 130.3 124.34 130.3 124.42C130.3 124.82 130.2 125.1 130 125.26C129.84 125.42 129.5 125.5 128.98 125.5C128.5 125.5 128.18 125.42 128.02 125.26C127.78 125.02 127.46 124.4 127.06 123.4C126.66 122.4 126.24 121.22 125.8 119.86C125.36 118.5 124.92 117.04 124.48 115.48C124.08 113.92 123.72 112.44 123.4 111.04C122.96 111.24 122.36 111.46 121.6 111.7C120.84 111.9 120.06 112.1 119.26 112.3C118.34 112.5 117.38 112.72 116.38 112.96C116.02 114.68 115.74 116.16 115.54 117.4C115.38 118.6 115.22 119.6 115.06 120.4C114.94 121.16 114.76 121.72 114.52 122.08C114.32 122.48 113.98 122.68 113.5 122.68C113.18 122.68 112.9 122.5 112.66 122.14C112.42 121.78 112.3 121.24 112.3 120.52C112.3 120.16 112.4 119.32 112.6 118C112.8 116.68 113.02 115.22 113.26 113.62C113.5 111.98 113.74 110.36 113.98 108.76C114.22 107.16 114.38 105.9 114.46 104.98C114.5 104.5 114.62 103.72 114.82 102.64C115.06 101.56 115.3 100.46 115.54 99.34C115.78 98.18 116.02 97.14 116.26 96.22C116.5 95.3 116.66 94.78 116.74 94.66C117.38 93.18 117.78 91.66 117.94 90.1C118.14 88.54 118.28 87.12 118.36 85.84C118.48 84.52 118.66 83.46 118.9 82.66C119.14 81.82 119.64 81.4 120.4 81.4C120.6 81.4 120.8 81.56 121 81.88C121.24 82.2 121.46 82.58 121.66 83.02C121.86 83.46 122.02 83.9 122.14 84.34C122.26 84.74 122.34 85.06 122.38 85.3C122.42 85.54 122.46 86.02 122.5 86.74C122.58 87.46 122.64 88.26 122.68 89.14C122.76 89.98 122.82 90.82 122.86 91.66C122.94 92.46 123 93.08 123.04 93.52C123.16 94.84 123.34 96.32 123.58 97.96C123.86 99.6 124.14 101.14 124.42 102.58C124.7 104.02 124.96 105.24 125.2 106.24C125.44 107.2 125.62 107.68 125.74 107.68C125.9 107.68 126.1 107.64 126.34 107.56C126.62 107.48 126.88 107.44 127.12 107.44C127.44 107.44 127.6 107.6 127.6 107.92C127.6 108.24 127.52 108.5 127.36 108.7C127.2 108.9 127.02 109.08 126.82 109.24C126.66 109.4 126.5 109.54 126.34 109.66C126.22 109.78 126.16 109.92 126.16 110.08C126.16 110.4 126.34 111.22 126.7 112.54L127.66 116.08C127.74 116.4 127.92 116.94 128.2 117.7C128.48 118.46 128.76 119.26 129.04 120.1C129.36 120.9 129.64 121.64 129.88 122.32C130.12 123.04 130.24 123.48 130.24 123.64ZM116.92 109.9C117.16 109.9 117.6 109.84 118.24 109.72C118.88 109.56 119.54 109.38 120.22 109.18C120.9 108.98 121.5 108.78 122.02 108.58C122.54 108.38 122.8 108.22 122.8 108.1C122.8 107.98 122.72 107.68 122.56 107.2C122.44 106.68 122.28 106.04 122.08 105.28C121.92 104.48 121.74 103.58 121.54 102.58C121.34 101.58 121.16 100.52 121 99.4C120.92 98.68 120.82 97.7 120.7 96.46C120.58 95.22 120.46 94 120.34 92.8C120.22 91.56 120.12 90.5 120.04 89.62C119.96 88.74 119.92 88.3 119.92 88.3C119.92 88.3 119.86 88.6 119.74 89.2C119.62 89.76 119.48 90.4 119.32 91.12C119.2 91.8 119.08 92.46 118.96 93.1C118.88 93.7 118.84 94.04 118.84 94.12V95.8C118.84 95.88 118.78 96.24 118.66 96.88C118.58 97.48 118.46 98.26 118.3 99.22C118.14 100.14 117.96 101.16 117.76 102.28C117.6 103.36 117.44 104.4 117.28 105.4C117.12 106.4 116.98 107.3 116.86 108.1C116.78 108.86 116.74 109.38 116.74 109.66C116.74 109.82 116.8 109.9 116.92 109.9ZM147.055 118.96C147.055 119.36 146.795 119.68 146.275 119.92C145.795 120.16 145.435 120.28 145.195 120.28C145.035 120.28 144.795 120.22 144.475 120.1C144.195 119.94 144.015 119.76 143.935 119.56C143.495 118 143.135 116.56 142.855 115.24C142.615 113.92 142.395 112.64 142.195 111.4C142.035 110.16 141.875 108.9 141.715 107.62C141.595 106.34 141.435 104.94 141.235 103.42C140.915 103.54 140.495 103.78 139.975 104.14C139.455 104.46 138.935 104.8 138.415 105.16C137.895 105.48 137.435 105.78 137.035 106.06C136.675 106.34 136.455 106.48 136.375 106.48C136.255 106.48 136.135 106.32 136.015 106C135.935 105.68 135.895 105.46 135.895 105.34C135.895 105.26 135.915 105.14 135.955 104.98C136.035 104.78 136.115 104.62 136.195 104.5C136.275 104.38 136.595 104.08 137.155 103.6C137.755 103.08 138.375 102.52 139.015 101.92C139.695 101.28 140.295 100.66 140.815 100.06C141.335 99.42 141.595 98.92 141.595 98.56C141.595 98.24 141.715 98.04 141.955 97.96C142.195 97.88 142.355 97.84 142.435 97.84C142.755 97.84 143.015 97.96 143.215 98.2C143.415 98.44 143.575 98.74 143.695 99.1C143.815 99.46 143.895 99.84 143.935 100.24C144.015 100.6 144.055 100.9 144.055 101.14C144.055 103.22 144.135 104.98 144.295 106.42C144.495 107.82 144.715 109.16 144.955 110.44C145.115 111.84 145.315 113.04 145.555 114.04C145.795 115 146.015 115.82 146.215 116.5C146.455 117.14 146.655 117.66 146.815 118.06C146.975 118.46 147.055 118.76 147.055 118.96Z" fill="white"/>
<path d="M118.15 143.44C117.89 143.74 117.52 144.04 117.04 144.34C116.56 144.62 116.08 144.88 115.6 145.12C115.12 145.36 114.7 145.57 114.34 145.75C113.98 145.91 113.8 146.02 113.8 146.08C113.8 146.14 113.84 146.32 113.92 146.62C114 146.92 114.09 147.28 114.19 147.7C114.31 148.1 114.43 148.52 114.55 148.96C114.67 149.4 114.77 149.79 114.85 150.13C114.89 150.33 114.94 150.59 115 150.91C115.06 151.23 115.11 151.55 115.15 151.87C115.21 152.19 115.26 152.48 115.3 152.74C115.34 152.98 115.36 153.11 115.36 153.13C115.36 153.43 115.31 153.74 115.21 154.06C115.11 154.38 114.95 154.54 114.73 154.54C114.61 154.54 114.5 154.49 114.4 154.39C114.3 154.29 114.21 154.18 114.13 154.06C114.05 153.92 113.99 153.79 113.95 153.67C113.91 153.55 113.89 153.46 113.89 153.4C113.89 153.36 113.89 153.3 113.89 153.22C113.91 153.14 113.92 153.05 113.92 152.95C113.92 152.57 113.86 152.02 113.74 151.3C113.7 151.08 113.62 150.74 113.5 150.28C113.38 149.82 113.26 149.35 113.14 148.87C113 148.31 112.84 147.7 112.66 147.04C112.58 146.76 112.53 146.62 112.51 146.62C112.37 146.62 112.13 146.71 111.79 146.89C111.47 147.05 111.1 147.26 110.68 147.52C110.26 147.76 109.82 148.03 109.36 148.33C108.9 148.61 108.47 148.88 108.07 149.14C107.67 149.38 107.33 149.59 107.05 149.77C106.75 149.93 106.57 150.01 106.51 150.01C106.25 150.01 106.04 149.92 105.88 149.74C105.72 149.56 105.64 149.36 105.64 149.14C105.64 149.02 105.81 148.85 106.15 148.63C106.47 148.39 106.88 148.13 107.38 147.85C107.86 147.57 108.39 147.28 108.97 146.98C109.53 146.68 110.05 146.41 110.53 146.17C111.03 145.93 111.44 145.73 111.76 145.57C112.1 145.41 112.27 145.33 112.27 145.33C112.09 144.41 111.94 143.59 111.82 142.87C111.72 142.25 111.62 141.68 111.52 141.16C111.44 140.64 111.4 140.36 111.4 140.32C111.4 140.06 111.45 139.87 111.55 139.75C111.67 139.61 111.8 139.54 111.94 139.54C112.16 139.54 112.3 139.69 112.36 139.99C112.58 141.07 112.78 142.03 112.96 142.87C113.16 143.71 113.35 144.39 113.53 144.91C113.71 144.87 114.02 144.76 114.46 144.58C114.9 144.38 115.36 144.17 115.84 143.95C116.32 143.73 116.75 143.54 117.13 143.38C117.53 143.2 117.76 143.11 117.82 143.11C117.94 143.11 118.01 143.15 118.03 143.23C118.07 143.31 118.11 143.38 118.15 143.44ZM129.38 151.45C129.48 151.55 129.53 151.61 129.53 151.63C129.53 151.67 129.47 151.79 129.35 151.99C129.25 152.19 129.11 152.4 128.93 152.62C128.75 152.84 128.55 153.04 128.33 153.22C128.13 153.38 127.93 153.46 127.73 153.46C127.31 153.46 126.97 153.38 126.71 153.22C126.45 153.04 126.23 152.82 126.05 152.56C125.89 152.3 125.76 152.02 125.66 151.72C125.58 151.4 125.51 151.1 125.45 150.82C125.41 150.68 125.37 150.61 125.33 150.61C125.27 150.61 125.15 150.83 124.97 151.27C124.79 151.69 124.59 152.16 124.37 152.68C124.17 153.18 123.97 153.65 123.77 154.09C123.59 154.51 123.47 154.72 123.41 154.72C123.05 154.72 122.74 154.57 122.48 154.27C122.24 153.95 122.04 153.59 121.88 153.19C121.74 152.77 121.63 152.35 121.55 151.93C121.47 151.49 121.42 151.15 121.4 150.91C121.34 150.37 121.21 149.47 121.01 148.21C120.81 146.95 120.64 145.42 120.5 143.62C120.46 143.24 120.41 142.9 120.35 142.6C120.31 142.28 120.26 141.93 120.2 141.55C120.14 141.17 120.09 140.74 120.05 140.26C120.01 139.78 119.99 139.19 119.99 138.49C119.99 138.45 120 138.32 120.02 138.1C120.04 137.88 120.07 137.64 120.11 137.38C120.15 137.12 120.21 136.89 120.29 136.69C120.39 136.49 120.5 136.39 120.62 136.39C120.76 136.39 120.89 136.48 121.01 136.66C121.13 136.82 121.23 137.01 121.31 137.23C121.41 137.45 121.48 137.66 121.52 137.86C121.56 138.06 121.58 138.2 121.58 138.28C121.58 138.58 121.56 138.86 121.52 139.12C121.48 139.38 121.46 139.62 121.46 139.84C121.46 140.14 121.48 140.52 121.52 140.98C121.58 141.44 121.65 141.91 121.73 142.39C121.81 142.87 121.88 143.34 121.94 143.8C122 144.24 122.05 144.6 122.09 144.88C122.09 144.9 122.11 145.04 122.15 145.3C122.19 145.56 122.23 145.89 122.27 146.29C122.33 146.67 122.38 147.09 122.42 147.55C122.48 147.99 122.54 148.43 122.6 148.87C122.66 149.29 122.71 149.67 122.75 150.01C122.81 150.33 122.85 150.56 122.87 150.7C122.87 150.76 122.88 150.85 122.9 150.97C122.94 151.07 122.97 151.19 122.99 151.33C123.03 151.47 123.07 151.6 123.11 151.72C123.15 151.84 123.2 151.93 123.26 151.99C123.38 151.75 123.53 151.38 123.71 150.88C123.91 150.38 124.11 149.87 124.31 149.35C124.53 148.83 124.73 148.38 124.91 148C125.11 147.6 125.28 147.4 125.42 147.4C125.58 147.4 125.71 147.43 125.81 147.49C125.91 147.55 126.04 147.6 126.2 147.64C126.4 147.72 126.5 147.83 126.5 147.97C126.5 148.09 126.52 148.24 126.56 148.42C126.6 148.66 126.66 148.98 126.74 149.38C126.84 149.76 126.95 150.14 127.07 150.52C127.19 150.88 127.33 151.19 127.49 151.45C127.65 151.71 127.81 151.84 127.97 151.84C128.05 151.84 128.16 151.74 128.3 151.54C128.44 151.32 128.63 151.2 128.87 151.18C128.91 151.18 128.98 151.21 129.08 151.27C129.18 151.31 129.28 151.37 129.38 151.45ZM133.064 143.2C133.064 143.24 132.994 143.32 132.854 143.44C132.714 143.56 132.544 143.69 132.344 143.83C132.164 143.95 131.974 144.06 131.774 144.16C131.574 144.26 131.414 144.31 131.294 144.31C131.214 144.31 131.104 144.31 130.964 144.31C130.844 144.29 130.714 144.25 130.574 144.19C130.454 144.13 130.344 144.05 130.244 143.95C130.144 143.83 130.094 143.68 130.094 143.5C130.094 143.22 130.194 142.96 130.394 142.72C130.594 142.46 130.854 142.33 131.174 142.33C131.234 142.33 131.364 142.36 131.564 142.42C131.784 142.46 132.004 142.52 132.224 142.6C132.444 142.68 132.634 142.77 132.794 142.87C132.974 142.97 133.064 143.08 133.064 143.2ZM134.054 154.42C134.054 154.56 133.944 154.68 133.724 154.78C133.524 154.88 133.374 154.93 133.274 154.93C133.074 154.93 132.894 154.8 132.734 154.54C132.574 154.28 132.434 153.98 132.314 153.64C132.194 153.3 132.094 152.98 132.014 152.68C131.934 152.36 131.874 152.14 131.834 152.02C131.774 151.82 131.694 151.58 131.594 151.3C131.494 151.02 131.394 150.75 131.294 150.49C131.214 150.23 131.144 150 131.084 149.8C131.024 149.6 130.994 149.49 130.994 149.47C130.994 149.19 131.044 148.93 131.144 148.69C131.264 148.45 131.404 148.33 131.564 148.33C131.744 148.33 131.934 148.47 132.134 148.75C132.334 149.03 132.524 149.39 132.704 149.83C132.904 150.25 133.084 150.72 133.244 151.24C133.404 151.74 133.544 152.22 133.664 152.68C133.784 153.12 133.874 153.51 133.934 153.85C134.014 154.17 134.054 154.36 134.054 154.42ZM142.702 153.04C142.702 153.38 142.582 153.68 142.342 153.94C142.122 154.18 141.832 154.39 141.472 154.57C141.132 154.73 140.752 154.86 140.332 154.96C139.912 155.06 139.512 155.14 139.132 155.2C138.752 155.24 138.412 155.27 138.112 155.29C137.832 155.29 137.652 155.29 137.572 155.29C137.132 155.29 136.792 155.22 136.552 155.08C136.312 154.94 136.192 154.69 136.192 154.33C136.192 154.21 136.202 154.11 136.222 154.03C136.242 153.93 136.322 153.88 136.462 153.88C136.522 153.88 136.622 153.9 136.762 153.94C136.902 153.96 137.012 153.97 137.092 153.97C137.172 153.97 137.422 153.96 137.842 153.94C138.282 153.9 138.742 153.84 139.222 153.76C139.722 153.68 140.162 153.57 140.542 153.43C140.942 153.27 141.142 153.07 141.142 152.83C141.142 152.79 140.932 152.67 140.512 152.47C140.112 152.25 139.502 151.89 138.682 151.39C138.042 150.99 137.592 150.59 137.332 150.19C137.072 149.77 136.942 149.21 136.942 148.51C136.942 148.07 137.032 147.71 137.212 147.43C137.412 147.15 137.672 146.93 137.992 146.77C138.332 146.61 138.712 146.5 139.132 146.44C139.572 146.36 140.032 146.32 140.512 146.32C140.552 146.32 140.672 146.34 140.872 146.38C141.092 146.42 141.322 146.49 141.562 146.59C141.802 146.67 142.012 146.78 142.192 146.92C142.392 147.04 142.492 147.18 142.492 147.34C142.492 147.38 142.452 147.44 142.372 147.52C142.312 147.6 142.202 147.75 142.042 147.97C141.982 147.95 141.872 147.92 141.712 147.88C141.572 147.84 141.402 147.8 141.202 147.76C141.022 147.7 140.832 147.66 140.632 147.64C140.432 147.6 140.272 147.58 140.152 147.58C139.632 147.58 139.212 147.68 138.892 147.88C138.572 148.06 138.412 148.42 138.412 148.96C138.412 149.22 138.512 149.46 138.712 149.68C138.932 149.9 139.202 150.11 139.522 150.31C139.842 150.49 140.182 150.68 140.542 150.88C140.922 151.06 141.272 151.26 141.592 151.48C141.912 151.7 142.172 151.94 142.372 152.2C142.592 152.44 142.702 152.72 142.702 153.04ZM148.568 142.51C148.568 142.69 148.478 143.08 148.298 143.68C148.118 144.28 147.918 144.95 147.698 145.69C147.498 146.41 147.308 147.12 147.128 147.82C146.968 148.52 146.888 149.07 146.888 149.47C146.888 149.89 146.908 150.24 146.948 150.52C146.988 150.78 147.028 151 147.068 151.18C147.128 151.36 147.178 151.52 147.218 151.66C147.258 151.78 147.278 151.93 147.278 152.11C147.278 152.51 147.098 152.71 146.738 152.71C146.678 152.71 146.618 152.67 146.558 152.59C146.118 151.95 145.848 151.32 145.748 150.7C145.668 150.08 145.628 149.6 145.628 149.26C145.628 148.84 145.688 148.3 145.808 147.64C145.928 146.96 146.078 146.25 146.258 145.51C146.438 144.75 146.638 144 146.858 143.26C147.098 142.5 147.328 141.84 147.548 141.28C147.588 141.24 147.638 141.2 147.698 141.16C147.758 141.12 147.838 141.1 147.938 141.1C148.078 141.1 148.188 141.16 148.268 141.28C148.348 141.38 148.408 141.51 148.448 141.67C148.488 141.81 148.518 141.96 148.538 142.12C148.558 142.28 148.568 142.41 148.568 142.51ZM149.558 155.98C149.558 156.2 149.488 156.43 149.348 156.67C149.228 156.89 149.068 157 148.868 157C148.608 157 148.358 156.87 148.118 156.61C147.898 156.35 147.788 156.05 147.788 155.71C147.788 155.59 147.808 155.44 147.848 155.26C147.908 155.06 148.038 154.96 148.238 154.96C148.318 154.96 148.428 154.97 148.568 154.99C148.708 155.01 148.848 155.06 148.988 155.14C149.148 155.2 149.278 155.3 149.378 155.44C149.498 155.58 149.558 155.76 149.558 155.98Z" fill="white"/>
<path d="M278.24 121.64C278.28 121.8 278.3 121.94 278.3 122.06C278.3 122.22 278.3 122.34 278.3 122.42C278.3 122.82 278.2 123.1 278 123.26C277.84 123.42 277.5 123.5 276.98 123.5C276.5 123.5 276.18 123.42 276.02 123.26C275.78 123.02 275.46 122.4 275.06 121.4C274.66 120.4 274.24 119.22 273.8 117.86C273.36 116.5 272.92 115.04 272.48 113.48C272.08 111.92 271.72 110.44 271.4 109.04C270.96 109.24 270.36 109.46 269.6 109.7C268.84 109.9 268.06 110.1 267.26 110.3C266.34 110.5 265.38 110.72 264.38 110.96C264.02 112.68 263.74 114.16 263.54 115.4C263.38 116.6 263.22 117.6 263.06 118.4C262.94 119.16 262.76 119.72 262.52 120.08C262.32 120.48 261.98 120.68 261.5 120.68C261.18 120.68 260.9 120.5 260.66 120.14C260.42 119.78 260.3 119.24 260.3 118.52C260.3 118.16 260.4 117.32 260.6 116C260.8 114.68 261.02 113.22 261.26 111.62C261.5 109.98 261.74 108.36 261.98 106.76C262.22 105.16 262.38 103.9 262.46 102.98C262.5 102.5 262.62 101.72 262.82 100.64C263.06 99.56 263.3 98.46 263.54 97.34C263.78 96.18 264.02 95.14 264.26 94.22C264.5 93.3 264.66 92.78 264.74 92.66C265.38 91.18 265.78 89.66 265.94 88.1C266.14 86.54 266.28 85.12 266.36 83.84C266.48 82.52 266.66 81.46 266.9 80.66C267.14 79.82 267.64 79.4 268.4 79.4C268.6 79.4 268.8 79.56 269 79.88C269.24 80.2 269.46 80.58 269.66 81.02C269.86 81.46 270.02 81.9 270.14 82.34C270.26 82.74 270.34 83.06 270.38 83.3C270.42 83.54 270.46 84.02 270.5 84.74C270.58 85.46 270.64 86.26 270.68 87.14C270.76 87.98 270.82 88.82 270.86 89.66C270.94 90.46 271 91.08 271.04 91.52C271.16 92.84 271.34 94.32 271.58 95.96C271.86 97.6 272.14 99.14 272.42 100.58C272.7 102.02 272.96 103.24 273.2 104.24C273.44 105.2 273.62 105.68 273.74 105.68C273.9 105.68 274.1 105.64 274.34 105.56C274.62 105.48 274.88 105.44 275.12 105.44C275.44 105.44 275.6 105.6 275.6 105.92C275.6 106.24 275.52 106.5 275.36 106.7C275.2 106.9 275.02 107.08 274.82 107.24C274.66 107.4 274.5 107.54 274.34 107.66C274.22 107.78 274.16 107.92 274.16 108.08C274.16 108.4 274.34 109.22 274.7 110.54L275.66 114.08C275.74 114.4 275.92 114.94 276.2 115.7C276.48 116.46 276.76 117.26 277.04 118.1C277.36 118.9 277.64 119.64 277.88 120.32C278.12 121.04 278.24 121.48 278.24 121.64ZM264.92 107.9C265.16 107.9 265.6 107.84 266.24 107.72C266.88 107.56 267.54 107.38 268.22 107.18C268.9 106.98 269.5 106.78 270.02 106.58C270.54 106.38 270.8 106.22 270.8 106.1C270.8 105.98 270.72 105.68 270.56 105.2C270.44 104.68 270.28 104.04 270.08 103.28C269.92 102.48 269.74 101.58 269.54 100.58C269.34 99.58 269.16 98.52 269 97.4C268.92 96.68 268.82 95.7 268.7 94.46C268.58 93.22 268.46 92 268.34 90.8C268.22 89.56 268.12 88.5 268.04 87.62C267.96 86.74 267.92 86.3 267.92 86.3C267.92 86.3 267.86 86.6 267.74 87.2C267.62 87.76 267.48 88.4 267.32 89.12C267.2 89.8 267.08 90.46 266.96 91.1C266.88 91.7 266.84 92.04 266.84 92.12V93.8C266.84 93.88 266.78 94.24 266.66 94.88C266.58 95.48 266.46 96.26 266.3 97.22C266.14 98.14 265.96 99.16 265.76 100.28C265.6 101.36 265.44 102.4 265.28 103.4C265.12 104.4 264.98 105.3 264.86 106.1C264.78 106.86 264.74 107.38 264.74 107.66C264.74 107.82 264.8 107.9 264.92 107.9ZM300.035 114.92C300.035 115.36 299.835 115.7 299.435 115.94C299.075 116.18 298.775 116.3 298.535 116.3C298.175 116.3 297.895 116.24 297.695 116.12C297.535 116 297.335 115.86 297.095 115.7C296.895 115.54 296.615 115.4 296.255 115.28C295.935 115.16 295.455 115.1 294.815 115.1C294.015 115.1 293.295 115.3 292.655 115.7C292.055 116.1 291.475 116.54 290.915 117.02C290.395 117.46 289.875 117.88 289.355 118.28C288.835 118.68 288.295 118.88 287.735 118.88C287.055 118.88 286.615 118.64 286.415 118.16C286.215 117.68 286.115 117.06 286.115 116.3C286.115 116.14 286.375 115.56 286.895 114.56C287.415 113.52 288.015 112.38 288.695 111.14C289.415 109.9 290.095 108.72 290.735 107.6C291.375 106.44 291.815 105.64 292.055 105.2C292.295 104.76 292.635 104.14 293.075 103.34C293.515 102.54 293.955 101.74 294.395 100.94C294.875 100.1 295.275 99.38 295.595 98.78C295.915 98.14 296.075 97.76 296.075 97.64C296.075 97.36 296.015 97.18 295.895 97.1C295.775 97.02 295.655 96.98 295.535 96.98C295.255 96.98 294.635 97.14 293.675 97.46C292.755 97.78 291.755 98.12 290.675 98.48C289.635 98.84 288.635 99.18 287.675 99.5C286.755 99.82 286.175 99.98 285.935 99.98C285.895 99.98 285.775 99.88 285.575 99.68C285.495 99.56 285.415 99.44 285.335 99.32C285.295 99.2 285.275 99.08 285.275 98.96C285.275 98.8 285.735 98.46 286.655 97.94C287.615 97.42 288.755 96.9 290.075 96.38C291.395 95.82 292.735 95.34 294.095 94.94C295.495 94.5 296.635 94.28 297.515 94.28C298.035 94.28 298.495 94.44 298.895 94.76C299.295 95.08 299.495 95.52 299.495 96.08C299.495 96.68 299.275 97.5 298.835 98.54C298.395 99.58 297.835 100.72 297.155 101.96C296.475 103.2 295.735 104.48 294.935 105.8C294.175 107.12 293.455 108.34 292.775 109.46C292.095 110.54 291.515 111.48 291.035 112.28C290.555 113.04 290.295 113.52 290.255 113.72C290.535 113.56 290.895 113.42 291.335 113.3C291.775 113.14 292.215 113 292.655 112.88C293.135 112.76 293.575 112.66 293.975 112.58C294.415 112.5 294.755 112.46 294.995 112.46C295.315 112.46 295.755 112.5 296.315 112.58C296.875 112.66 297.435 112.8 297.995 113C298.555 113.16 299.035 113.4 299.435 113.72C299.835 114.04 300.035 114.44 300.035 114.92Z" fill="white"/>
<path d="M250.937 138.76C250.937 139.12 250.767 139.57 250.427 140.11C250.107 140.63 249.667 141.14 249.107 141.64C248.547 142.14 247.897 142.57 247.157 142.93C246.417 143.27 245.647 143.44 244.847 143.44C244.487 143.44 244.107 143.38 243.707 143.26C243.307 143.14 242.917 142.97 242.537 142.75C242.157 142.51 241.817 142.23 241.517 141.91C241.217 141.57 240.997 141.19 240.857 140.77C240.737 140.89 240.587 141.09 240.407 141.37C240.247 141.65 240.067 141.94 239.867 142.24C239.667 142.52 239.447 142.77 239.207 142.99C238.967 143.19 238.717 143.29 238.457 143.29C238.197 143.29 237.977 143.16 237.797 142.9C237.637 142.62 237.507 142.32 237.407 142C237.307 141.66 237.237 141.34 237.197 141.04C237.157 140.74 237.137 140.57 237.137 140.53C237.137 140.29 237.207 139.84 237.347 139.18C237.487 138.5 237.697 137.8 237.977 137.08C238.257 136.36 238.607 135.72 239.027 135.16C239.467 134.6 239.977 134.32 240.557 134.32C240.777 134.32 240.917 134.42 240.977 134.62C241.057 134.8 241.097 134.98 241.097 135.16V136.06C241.197 136.14 241.297 136.2 241.397 136.24C241.517 136.26 241.617 136.3 241.697 136.36C241.797 136.4 241.867 136.47 241.907 136.57C241.967 136.67 241.997 136.83 241.997 137.05C241.997 137.19 241.987 137.32 241.967 137.44C241.947 137.54 241.937 137.64 241.937 137.74C241.937 138.26 241.977 138.77 242.057 139.27C242.137 139.77 242.297 140.22 242.537 140.62C242.777 141 243.107 141.32 243.527 141.58C243.947 141.82 244.507 141.94 245.207 141.94C246.087 141.94 246.827 141.76 247.427 141.4C248.047 141.02 248.557 140.61 248.957 140.17C249.377 139.71 249.707 139.3 249.947 138.94C250.187 138.56 250.387 138.37 250.547 138.37C250.807 138.37 250.937 138.5 250.937 138.76ZM240.407 137.44C240.407 137.36 240.387 137.29 240.347 137.23C240.307 137.15 240.287 137.08 240.287 137.02C240.287 136.94 240.307 136.87 240.347 136.81C240.387 136.75 240.407 136.67 240.407 136.57C240.407 136.51 240.387 136.47 240.347 136.45C240.307 136.41 240.287 136.37 240.287 136.33C240.107 136.37 239.917 136.54 239.717 136.84C239.537 137.14 239.357 137.49 239.177 137.89C239.017 138.29 238.887 138.7 238.787 139.12C238.687 139.52 238.637 139.85 238.637 140.11C238.637 140.25 238.677 140.48 238.757 140.8C238.837 141.12 238.927 141.33 239.027 141.43C239.367 140.73 239.677 140.05 239.957 139.39C240.257 138.73 240.407 138.08 240.407 137.44ZM260.306 141.31C260.306 141.43 260.266 141.55 260.186 141.67C260.106 141.79 260.006 141.9 259.886 142C259.786 142.1 259.666 142.19 259.526 142.27C259.406 142.33 259.296 142.36 259.196 142.36C258.856 142.36 258.416 142.29 257.876 142.15C257.356 141.99 256.936 141.75 256.616 141.43C256.276 141.09 255.976 140.69 255.716 140.23C255.456 139.75 255.166 139.05 254.846 138.13C254.626 139.01 254.366 139.88 254.066 140.74C253.786 141.6 253.326 142.39 252.686 143.11C252.646 143.15 252.586 143.17 252.506 143.17C252.366 143.17 252.216 143.1 252.056 142.96C251.896 142.82 251.816 142.68 251.816 142.54C251.816 142.4 251.796 142.08 251.756 141.58C251.736 141.06 251.706 140.49 251.666 139.87C251.626 139.23 251.586 138.59 251.546 137.95C251.526 137.29 251.516 136.75 251.516 136.33C251.516 136.13 251.526 135.87 251.546 135.55C251.566 135.21 251.626 134.92 251.726 134.68C251.746 134.64 251.816 134.56 251.936 134.44C252.076 134.32 252.226 134.26 252.386 134.26C252.526 134.26 252.606 134.35 252.626 134.53C252.646 134.71 252.656 134.91 252.656 135.13V139.87C252.656 139.97 252.666 140.11 252.686 140.29C252.726 140.47 252.776 140.6 252.836 140.68C253.056 140.2 253.256 139.64 253.436 139C253.636 138.34 253.826 137.72 254.006 137.14C254.186 136.54 254.366 136.04 254.546 135.64C254.726 135.22 254.906 135.01 255.086 135.01C255.286 135.01 255.446 135.05 255.566 135.13C255.686 135.21 255.786 135.37 255.866 135.61C255.966 136.19 256.046 136.71 256.106 137.17C256.166 137.61 256.236 138.01 256.316 138.37C256.416 138.73 256.546 139.07 256.706 139.39C256.886 139.69 257.126 139.97 257.426 140.23C257.706 140.49 258.016 140.68 258.356 140.8C258.716 140.92 259.026 140.98 259.286 140.98C259.406 140.98 259.536 140.96 259.676 140.92C259.816 140.86 259.916 140.83 259.976 140.83C260.056 140.83 260.126 140.9 260.186 141.04C260.266 141.18 260.306 141.27 260.306 141.31ZM263.623 131.2C263.623 131.24 263.553 131.32 263.413 131.44C263.273 131.56 263.103 131.69 262.903 131.83C262.723 131.95 262.533 132.06 262.333 132.16C262.133 132.26 261.973 132.31 261.853 132.31C261.773 132.31 261.663 132.31 261.523 132.31C261.403 132.29 261.273 132.25 261.133 132.19C261.013 132.13 260.903 132.05 260.803 131.95C260.703 131.83 260.653 131.68 260.653 131.5C260.653 131.22 260.753 130.96 260.953 130.72C261.153 130.46 261.413 130.33 261.733 130.33C261.793 130.33 261.923 130.36 262.123 130.42C262.343 130.46 262.563 130.52 262.783 130.6C263.003 130.68 263.193 130.77 263.353 130.87C263.533 130.97 263.623 131.08 263.623 131.2ZM264.613 142.42C264.613 142.56 264.503 142.68 264.283 142.78C264.083 142.88 263.933 142.93 263.833 142.93C263.633 142.93 263.453 142.8 263.293 142.54C263.133 142.28 262.993 141.98 262.873 141.64C262.753 141.3 262.653 140.98 262.573 140.68C262.493 140.36 262.433 140.14 262.393 140.02C262.333 139.82 262.253 139.58 262.153 139.3C262.053 139.02 261.953 138.75 261.853 138.49C261.773 138.23 261.703 138 261.643 137.8C261.583 137.6 261.553 137.49 261.553 137.47C261.553 137.19 261.603 136.93 261.703 136.69C261.823 136.45 261.963 136.33 262.123 136.33C262.303 136.33 262.493 136.47 262.693 136.75C262.893 137.03 263.083 137.39 263.263 137.83C263.463 138.25 263.643 138.72 263.803 139.24C263.963 139.74 264.103 140.22 264.223 140.68C264.343 141.12 264.433 141.51 264.493 141.85C264.573 142.17 264.613 142.36 264.613 142.42ZM279.832 142.18C279.832 142.34 279.782 142.48 279.682 142.6C279.582 142.72 279.462 142.82 279.322 142.9C279.182 142.96 279.032 143.01 278.872 143.05C278.732 143.09 278.612 143.11 278.512 143.11C278.092 143.11 277.732 142.89 277.432 142.45C277.132 141.99 276.882 141.49 276.682 140.95C276.482 140.39 276.332 139.87 276.232 139.39C276.152 138.91 276.112 138.65 276.112 138.61C275.992 138.83 275.862 139.2 275.722 139.72C275.602 140.24 275.452 140.77 275.272 141.31C275.092 141.83 274.862 142.3 274.582 142.72C274.322 143.12 273.982 143.32 273.562 143.32C273.362 143.32 273.172 143.2 272.992 142.96C272.812 142.72 272.642 142.41 272.482 142.03C272.322 141.65 272.162 141.22 272.002 140.74C271.862 140.26 271.712 139.79 271.552 139.33C271.412 138.87 271.272 138.44 271.132 138.04C270.992 137.62 270.852 137.29 270.712 137.05C270.592 137.35 270.482 137.76 270.382 138.28C270.302 138.8 270.232 139.35 270.172 139.93C270.112 140.49 270.062 141.05 270.022 141.61C269.982 142.17 269.962 142.66 269.962 143.08C269.962 143.36 269.882 143.56 269.722 143.68C269.582 143.8 269.432 143.86 269.272 143.86C269.052 143.86 268.832 143.72 268.612 143.44C268.392 143.14 268.172 142.76 267.952 142.3C267.732 141.84 267.522 141.32 267.322 140.74C267.142 140.16 266.972 139.58 266.812 139C266.672 138.42 266.562 137.87 266.482 137.35C266.402 136.81 266.362 136.36 266.362 136C266.362 135.74 266.372 135.5 266.392 135.28C266.412 135.1 266.422 134.93 266.422 134.77C266.442 134.61 266.452 134.52 266.452 134.5C266.452 134.44 266.432 134.4 266.392 134.38C266.372 134.36 266.362 134.31 266.362 134.23C266.362 134.17 266.432 134.08 266.572 133.96C266.732 133.82 266.892 133.75 267.052 133.75C267.332 133.75 267.512 133.81 267.592 133.93C267.692 134.05 267.742 134.19 267.742 134.35C267.742 134.41 267.732 134.5 267.712 134.62C267.712 134.74 267.712 135.01 267.712 135.43C267.712 135.71 267.762 136.13 267.862 136.69C267.962 137.25 268.082 137.82 268.222 138.4C268.362 138.98 268.502 139.52 268.642 140.02C268.802 140.5 268.932 140.8 269.032 140.92C269.072 140.84 269.092 140.75 269.092 140.65C269.112 140.53 269.132 140.44 269.152 140.38L269.482 137.92C269.562 137.3 269.722 136.65 269.962 135.97C270.222 135.27 270.492 134.73 270.772 134.35C270.872 134.19 270.982 134.11 271.102 134.11C271.222 134.11 271.332 134.2 271.432 134.38C271.772 134.94 272.022 135.5 272.182 136.06C272.362 136.6 272.512 137.14 272.632 137.68C272.772 138.2 272.922 138.73 273.082 139.27C273.262 139.79 273.532 140.32 273.892 140.86C274.052 140.6 274.252 140.18 274.492 139.6C274.732 139 274.972 138.4 275.212 137.8C275.472 137.2 275.712 136.68 275.932 136.24C276.152 135.78 276.322 135.55 276.442 135.55C276.502 135.55 276.602 135.56 276.742 135.58C276.882 135.6 276.982 135.61 277.042 135.61C277.222 135.61 277.372 135.82 277.492 136.24C277.612 136.64 277.712 137.12 277.792 137.68C277.892 138.22 277.982 138.77 278.062 139.33C278.162 139.87 278.272 140.28 278.392 140.56C278.472 140.76 278.592 140.95 278.752 141.13C278.912 141.31 279.072 141.48 279.232 141.64C279.432 141.82 279.632 142 279.832 142.18ZM296.494 138.76C296.494 139.12 296.324 139.57 295.984 140.11C295.664 140.63 295.224 141.14 294.664 141.64C294.104 142.14 293.454 142.57 292.714 142.93C291.974 143.27 291.204 143.44 290.404 143.44C290.044 143.44 289.664 143.38 289.264 143.26C288.864 143.14 288.474 142.97 288.094 142.75C287.714 142.51 287.374 142.23 287.074 141.91C286.774 141.57 286.554 141.19 286.414 140.77C286.294 140.89 286.144 141.09 285.964 141.37C285.804 141.65 285.624 141.94 285.424 142.24C285.224 142.52 285.004 142.77 284.764 142.99C284.524 143.19 284.274 143.29 284.014 143.29C283.754 143.29 283.534 143.16 283.354 142.9C283.194 142.62 283.064 142.32 282.964 142C282.864 141.66 282.794 141.34 282.754 141.04C282.714 140.74 282.694 140.57 282.694 140.53C282.694 140.29 282.764 139.84 282.904 139.18C283.044 138.5 283.254 137.8 283.534 137.08C283.814 136.36 284.164 135.72 284.584 135.16C285.024 134.6 285.534 134.32 286.114 134.32C286.334 134.32 286.474 134.42 286.534 134.62C286.614 134.8 286.654 134.98 286.654 135.16V136.06C286.754 136.14 286.854 136.2 286.954 136.24C287.074 136.26 287.174 136.3 287.254 136.36C287.354 136.4 287.424 136.47 287.464 136.57C287.524 136.67 287.554 136.83 287.554 137.05C287.554 137.19 287.544 137.32 287.524 137.44C287.504 137.54 287.494 137.64 287.494 137.74C287.494 138.26 287.534 138.77 287.614 139.27C287.694 139.77 287.854 140.22 288.094 140.62C288.334 141 288.664 141.32 289.084 141.58C289.504 141.82 290.064 141.94 290.764 141.94C291.644 141.94 292.384 141.76 292.984 141.4C293.604 141.02 294.114 140.61 294.514 140.17C294.934 139.71 295.264 139.3 295.504 138.94C295.744 138.56 295.944 138.37 296.104 138.37C296.364 138.37 296.494 138.5 296.494 138.76ZM285.964 137.44C285.964 137.36 285.944 137.29 285.904 137.23C285.864 137.15 285.844 137.08 285.844 137.02C285.844 136.94 285.864 136.87 285.904 136.81C285.944 136.75 285.964 136.67 285.964 136.57C285.964 136.51 285.944 136.47 285.904 136.45C285.864 136.41 285.844 136.37 285.844 136.33C285.664 136.37 285.474 136.54 285.274 136.84C285.094 137.14 284.914 137.49 284.734 137.89C284.574 138.29 284.444 138.7 284.344 139.12C284.244 139.52 284.194 139.85 284.194 140.11C284.194 140.25 284.234 140.48 284.314 140.8C284.394 141.12 284.484 141.33 284.584 141.43C284.924 140.73 285.234 140.05 285.514 139.39C285.814 138.73 285.964 138.08 285.964 137.44ZM304.813 131.44C304.553 131.74 304.183 132.04 303.703 132.34C303.223 132.62 302.743 132.88 302.263 133.12C301.783 133.36 301.363 133.57 301.003 133.75C300.643 133.91 300.463 134.02 300.463 134.08C300.463 134.14 300.503 134.32 300.583 134.62C300.663 134.92 300.753 135.28 300.853 135.7C300.973 136.1 301.093 136.52 301.213 136.96C301.333 137.4 301.433 137.79 301.513 138.13C301.553 138.33 301.603 138.59 301.663 138.91C301.723 139.23 301.773 139.55 301.813 139.87C301.873 140.19 301.923 140.48 301.963 140.74C302.003 140.98 302.023 141.11 302.023 141.13C302.023 141.43 301.973 141.74 301.873 142.06C301.773 142.38 301.613 142.54 301.393 142.54C301.273 142.54 301.163 142.49 301.063 142.39C300.963 142.29 300.873 142.18 300.793 142.06C300.713 141.92 300.653 141.79 300.613 141.67C300.573 141.55 300.553 141.46 300.553 141.4C300.553 141.36 300.553 141.3 300.553 141.22C300.573 141.14 300.583 141.05 300.583 140.95C300.583 140.57 300.523 140.02 300.403 139.3C300.363 139.08 300.283 138.74 300.163 138.28C300.043 137.82 299.923 137.35 299.803 136.87C299.663 136.31 299.503 135.7 299.323 135.04C299.243 134.76 299.193 134.62 299.173 134.62C299.033 134.62 298.793 134.71 298.453 134.89C298.133 135.05 297.763 135.26 297.343 135.52C296.923 135.76 296.483 136.03 296.023 136.33C295.563 136.61 295.133 136.88 294.733 137.14C294.333 137.38 293.993 137.59 293.713 137.77C293.413 137.93 293.233 138.01 293.173 138.01C292.913 138.01 292.703 137.92 292.543 137.74C292.383 137.56 292.303 137.36 292.303 137.14C292.303 137.02 292.473 136.85 292.813 136.63C293.133 136.39 293.543 136.13 294.043 135.85C294.523 135.57 295.053 135.28 295.633 134.98C296.193 134.68 296.713 134.41 297.193 134.17C297.693 133.93 298.103 133.73 298.423 133.57C298.763 133.41 298.933 133.33 298.933 133.33C298.753 132.41 298.603 131.59 298.483 130.87C298.383 130.25 298.283 129.68 298.183 129.16C298.103 128.64 298.063 128.36 298.063 128.32C298.063 128.06 298.113 127.87 298.213 127.75C298.333 127.61 298.463 127.54 298.603 127.54C298.823 127.54 298.963 127.69 299.023 127.99C299.243 129.07 299.443 130.03 299.623 130.87C299.823 131.71 300.013 132.39 300.193 132.91C300.373 132.87 300.683 132.76 301.123 132.58C301.563 132.38 302.023 132.17 302.503 131.95C302.983 131.73 303.413 131.54 303.793 131.38C304.193 131.2 304.423 131.11 304.483 131.11C304.603 131.11 304.673 131.15 304.693 131.23C304.733 131.31 304.773 131.38 304.813 131.44ZM314.783 141.85C314.803 141.89 314.813 141.95 314.813 142.03C314.813 142.15 314.723 142.33 314.543 142.57C314.483 142.65 314.353 142.78 314.153 142.96C313.953 143.14 313.683 143.32 313.343 143.5C313.003 143.68 312.583 143.84 312.083 143.98C311.603 144.12 311.033 144.19 310.373 144.19C309.913 144.19 309.463 144.09 309.023 143.89C308.583 143.67 308.193 143.36 307.853 142.96C307.513 142.54 307.233 142.03 307.013 141.43C306.793 140.81 306.683 140.09 306.683 139.27C306.683 138.49 306.783 137.76 306.983 137.08C307.183 136.4 307.433 135.8 307.733 135.28C308.053 134.76 308.403 134.35 308.783 134.05C309.163 133.75 309.533 133.6 309.893 133.6C310.213 133.6 310.533 133.67 310.853 133.81C311.193 133.93 311.493 134.09 311.753 134.29C312.033 134.49 312.253 134.72 312.413 134.98C312.573 135.22 312.653 135.47 312.653 135.73C312.653 136.03 312.513 136.34 312.233 136.66C311.973 136.98 311.653 137.28 311.273 137.56C310.893 137.82 310.513 138.04 310.133 138.22C309.753 138.38 309.453 138.46 309.233 138.46C309.113 138.46 309.003 138.41 308.903 138.31C308.823 138.19 308.783 138.05 308.783 137.89C308.783 137.61 308.903 137.39 309.143 137.23C309.403 137.07 309.683 136.93 309.983 136.81C310.283 136.67 310.553 136.51 310.793 136.33C311.053 136.15 311.183 135.9 311.183 135.58C311.183 135.54 311.133 135.44 311.033 135.28C310.933 135.12 310.663 135.04 310.223 135.04C310.023 135.04 309.793 135.16 309.533 135.4C309.273 135.62 309.023 135.93 308.783 136.33C308.543 136.71 308.343 137.17 308.183 137.71C308.023 138.23 307.943 138.8 307.943 139.42C307.943 139.94 308.033 140.41 308.213 140.83C308.413 141.25 308.663 141.61 308.963 141.91C309.263 142.19 309.613 142.41 310.013 142.57C310.413 142.73 310.823 142.81 311.243 142.81C311.543 142.81 311.863 142.75 312.203 142.63C312.563 142.49 312.893 142.35 313.193 142.21C313.513 142.05 313.783 141.91 314.003 141.79C314.243 141.65 314.393 141.58 314.453 141.58C314.513 141.58 314.573 141.61 314.633 141.67C314.713 141.73 314.763 141.79 314.783 141.85ZM325.392 140.17C325.392 140.27 325.342 140.37 325.242 140.47C325.162 140.55 325.112 140.64 325.092 140.74C325.092 140.96 325.132 141.17 325.212 141.37C325.312 141.57 325.362 141.81 325.362 142.09C325.362 142.35 325.282 142.48 325.122 142.48C324.922 142.48 324.772 142.51 324.672 142.57C324.592 142.61 324.442 142.65 324.222 142.69C324.102 142.69 323.972 142.58 323.832 142.36C323.752 142.26 323.682 142.14 323.622 142C323.622 141.98 323.562 142.02 323.442 142.12C323.342 142.22 323.162 142.34 322.902 142.48C322.662 142.6 322.322 142.72 321.882 142.84C321.462 142.94 320.922 142.99 320.262 142.99C319.702 142.99 319.212 142.87 318.792 142.63C318.372 142.37 318.022 142.04 317.742 141.64C317.482 141.24 317.282 140.79 317.142 140.29C317.022 139.77 316.962 139.25 316.962 138.73C316.962 138.25 317.012 137.8 317.112 137.38C317.232 136.94 317.392 136.56 317.592 136.24C317.792 135.9 318.042 135.63 318.342 135.43C318.642 135.23 318.992 135.13 319.392 135.13C319.772 135.13 320.152 135.25 320.532 135.49C320.912 135.73 321.252 135.99 321.552 136.27C321.852 136.55 322.092 136.81 322.272 137.05C322.472 137.27 322.572 137.38 322.572 137.38C322.292 135.82 322.042 134.41 321.822 133.15C321.722 132.61 321.622 132.08 321.522 131.56C321.442 131.02 321.362 130.54 321.282 130.12C321.202 129.7 321.132 129.35 321.072 129.07C321.032 128.77 321.012 128.59 321.012 128.53C320.992 128.41 320.972 128.2 320.952 127.9C320.932 127.58 320.912 127.25 320.892 126.91C320.872 126.57 320.852 126.26 320.832 125.98C320.812 125.7 320.792 125.52 320.772 125.44C320.712 125.24 320.632 124.99 320.532 124.69C320.452 124.39 320.412 124.22 320.412 124.18C320.412 124.08 320.462 123.96 320.562 123.82C320.662 123.66 320.792 123.58 320.952 123.58C321.072 123.58 321.182 123.59 321.282 123.61C321.382 123.63 321.472 123.69 321.552 123.79C321.632 123.89 321.702 124.05 321.762 124.27C321.842 124.47 321.912 124.76 321.972 125.14C321.992 125.34 322.052 125.72 322.152 126.28C322.252 126.84 322.352 127.45 322.452 128.11C322.552 128.77 322.652 129.4 322.752 130C322.852 130.6 322.922 131.04 322.962 131.32C323.062 132.08 323.192 132.91 323.352 133.81C323.532 134.69 323.712 135.54 323.892 136.36C324.072 137.18 324.252 137.91 324.432 138.55C324.612 139.17 324.772 139.59 324.912 139.81C324.952 139.89 325.032 139.95 325.152 139.99C325.272 140.01 325.352 140.07 325.392 140.17ZM323.172 140.77C323.152 140.71 323.022 140.46 322.782 140.02C322.562 139.56 322.272 139.07 321.912 138.55C321.572 138.01 321.182 137.53 320.742 137.11C320.322 136.69 319.912 136.48 319.512 136.48C319.172 136.48 318.892 136.74 318.672 137.26C318.472 137.78 318.372 138.38 318.372 139.06C318.372 139.82 318.592 140.43 319.032 140.89C319.492 141.35 320.002 141.58 320.562 141.58C321.042 141.58 321.542 141.5 322.062 141.34C322.582 141.18 322.952 140.99 323.172 140.77ZM271.828 172.36C271.828 172.58 271.748 172.73 271.588 172.81C271.428 172.89 271.348 173 271.348 173.14C271.328 173.12 271.368 173.23 271.468 173.47C271.568 173.71 271.658 173.96 271.738 174.22C271.878 174.76 271.998 175.23 272.098 175.63C272.218 176.03 272.308 176.4 272.368 176.74C272.448 177.08 272.508 177.42 272.548 177.76C272.588 178.1 272.608 178.48 272.608 178.9C272.608 179.32 272.538 179.75 272.398 180.19C272.258 180.63 272.058 181.02 271.798 181.36C271.538 181.7 271.218 181.98 270.838 182.2C270.458 182.42 270.028 182.53 269.548 182.53C268.808 182.53 268.218 182.38 267.778 182.08C267.358 181.78 267.038 181.44 266.818 181.06C266.598 180.68 266.458 180.3 266.398 179.92C266.338 179.56 266.308 179.32 266.308 179.2C266.308 178.46 266.498 177.72 266.878 176.98C267.258 176.24 267.678 175.57 268.138 174.97C268.598 174.37 269.018 173.87 269.398 173.47C269.778 173.07 269.968 172.84 269.968 172.78L269.638 171.79C269.438 172.03 269.258 172.3 269.098 172.6C268.958 172.88 268.798 173.15 268.618 173.41C268.458 173.65 268.258 173.86 268.018 174.04C267.798 174.2 267.518 174.28 267.178 174.28C266.818 174.28 266.458 174.17 266.098 173.95C265.738 173.73 265.418 173.4 265.138 172.96C264.858 172.52 264.628 171.99 264.448 171.37C264.288 170.75 264.208 170.03 264.208 169.21C264.208 168.75 264.278 168.18 264.418 167.5C264.558 166.8 264.778 166.13 265.078 165.49C265.378 164.85 265.748 164.31 266.188 163.87C266.648 163.41 267.178 163.18 267.778 163.18C268.118 163.18 268.428 163.24 268.708 163.36C269.008 163.48 269.158 163.63 269.158 163.81C269.158 163.97 269.128 164.1 269.068 164.2C269.008 164.3 268.928 164.4 268.828 164.5C268.768 164.46 268.698 164.42 268.618 164.38C268.558 164.34 268.468 164.32 268.348 164.32C267.908 164.32 267.508 164.52 267.147 164.92C266.808 165.3 266.518 165.78 266.278 166.36C266.038 166.92 265.848 167.51 265.708 168.13C265.588 168.75 265.528 169.29 265.528 169.75C265.528 170.77 265.698 171.55 266.038 172.09C266.378 172.61 266.738 172.87 267.118 172.87C267.298 172.87 267.488 172.74 267.688 172.48C267.908 172.2 268.108 171.9 268.288 171.58C268.488 171.24 268.658 170.92 268.798 170.62C268.938 170.32 269.018 170.14 269.038 170.08C269.078 169.88 269.098 169.65 269.098 169.39C269.098 169.17 269.088 168.93 269.068 168.67C269.068 168.39 269.068 168.11 269.068 167.83C269.068 167.31 269.108 166.88 269.188 166.54C269.268 166.18 269.468 166 269.788 166C270.108 166 270.338 166.1 270.478 166.3C270.618 166.48 270.688 166.7 270.688 166.96C270.688 167.14 270.678 167.36 270.658 167.62C270.658 167.86 270.658 168.1 270.658 168.34C270.658 168.56 270.648 168.76 270.628 168.94C270.628 169.1 270.628 169.2 270.628 169.24C270.628 169.36 270.638 169.54 270.658 169.78C270.698 170 270.728 170.23 270.748 170.47C270.788 170.69 270.818 170.9 270.838 171.1C270.878 171.28 270.908 171.4 270.928 171.46C270.948 171.52 270.978 171.61 271.018 171.73C271.058 171.85 271.098 171.94 271.138 172C271.158 171.96 271.198 171.92 271.258 171.88C271.318 171.82 271.368 171.77 271.408 171.73C271.508 171.79 271.598 171.91 271.678 172.09C271.778 172.25 271.828 172.34 271.828 172.36ZM270.808 176.17C270.728 175.85 270.638 175.53 270.538 175.21C270.438 174.89 270.338 174.56 270.238 174.22C269.898 174.64 269.568 175.04 269.248 175.42C268.948 175.82 268.668 176.21 268.408 176.59C268.168 176.97 267.968 177.36 267.808 177.76C267.668 178.18 267.597 178.62 267.597 179.08C267.597 179.7 267.768 180.21 268.108 180.61C268.468 181.01 268.858 181.21 269.278 181.21C269.738 181.21 270.168 181.04 270.568 180.7C270.988 180.36 271.198 179.87 271.198 179.23C271.198 178.81 271.188 178.46 271.168 178.18C271.148 177.9 271.118 177.65 271.078 177.43C271.058 177.23 271.018 177.03 270.958 176.83C270.918 176.65 270.868 176.43 270.808 176.17ZM276.089 161.2C276.089 161.24 276.019 161.32 275.879 161.44C275.739 161.56 275.569 161.69 275.369 161.83C275.189 161.95 274.999 162.06 274.799 162.16C274.599 162.26 274.439 162.31 274.319 162.31C274.239 162.31 274.129 162.31 273.989 162.31C273.869 162.29 273.739 162.25 273.599 162.19C273.479 162.13 273.369 162.05 273.269 161.95C273.169 161.83 273.119 161.68 273.119 161.5C273.119 161.22 273.219 160.96 273.419 160.72C273.619 160.46 273.879 160.33 274.199 160.33C274.259 160.33 274.389 160.36 274.589 160.42C274.809 160.46 275.029 160.52 275.249 160.6C275.469 160.68 275.659 160.77 275.819 160.87C275.999 160.97 276.089 161.08 276.089 161.2ZM277.079 172.42C277.079 172.56 276.969 172.68 276.749 172.78C276.549 172.88 276.399 172.93 276.299 172.93C276.099 172.93 275.919 172.8 275.759 172.54C275.599 172.28 275.459 171.98 275.339 171.64C275.219 171.3 275.119 170.98 275.039 170.68C274.959 170.36 274.899 170.14 274.859 170.02C274.799 169.82 274.719 169.58 274.619 169.3C274.519 169.02 274.419 168.75 274.319 168.49C274.239 168.23 274.169 168 274.109 167.8C274.049 167.6 274.019 167.49 274.019 167.47C274.019 167.19 274.069 166.93 274.169 166.69C274.289 166.45 274.429 166.33 274.589 166.33C274.769 166.33 274.959 166.47 275.159 166.75C275.359 167.03 275.549 167.39 275.729 167.83C275.929 168.25 276.109 168.72 276.269 169.24C276.429 169.74 276.569 170.22 276.689 170.68C276.809 171.12 276.899 171.51 276.959 171.85C277.039 172.17 277.079 172.36 277.079 172.42ZM288.787 153.49C288.807 153.53 288.817 153.6 288.817 153.7C288.817 153.8 288.817 153.91 288.817 154.03C288.817 154.17 288.767 154.24 288.667 154.24C288.627 154.24 288.577 154.23 288.517 154.21C288.457 154.19 288.407 154.17 288.367 154.15C288.007 153.99 287.567 153.79 287.047 153.55C286.547 153.29 285.977 153.16 285.337 153.16C284.617 153.16 284.037 153.43 283.597 153.97C283.157 154.51 282.817 155.14 282.577 155.86C282.357 156.56 282.207 157.25 282.127 157.93C282.067 158.61 282.037 159.1 282.037 159.4C282.037 159.62 282.067 159.97 282.127 160.45C282.207 160.91 282.307 161.39 282.427 161.89C282.547 162.39 282.687 162.85 282.847 163.27C283.007 163.67 283.167 163.92 283.327 164.02C283.447 164.02 283.657 164.01 283.957 163.99C284.277 163.97 284.537 163.96 284.737 163.96C285.077 163.96 285.397 163.99 285.697 164.05C285.997 164.11 286.307 164.14 286.627 164.14C286.707 164.14 286.827 164.14 286.987 164.14C287.147 164.14 287.307 164.15 287.467 164.17C287.647 164.19 287.797 164.23 287.917 164.29C288.037 164.33 288.097 164.39 288.097 164.47C288.097 164.57 288.027 164.66 287.887 164.74C287.747 164.82 287.587 164.89 287.407 164.95C287.227 164.99 287.047 165.02 286.867 165.04C286.687 165.06 286.547 165.07 286.447 165.07C286.347 165.07 286.217 165.07 286.057 165.07C285.897 165.05 285.717 165.03 285.517 165.01C285.337 164.99 285.157 164.98 284.977 164.98C284.817 164.96 284.677 164.95 284.557 164.95C284.237 164.95 284.037 164.99 283.957 165.07C283.897 165.13 283.867 165.26 283.867 165.46C283.867 165.76 283.997 166.17 284.257 166.69C284.537 167.19 284.837 167.73 285.157 168.31C285.477 168.89 285.767 169.49 286.027 170.11C286.307 170.73 286.447 171.3 286.447 171.82C286.447 171.92 286.417 172.11 286.357 172.39C286.317 172.65 286.247 172.92 286.147 173.2C286.067 173.48 285.947 173.73 285.787 173.95C285.627 174.17 285.447 174.28 285.247 174.28C285.087 174.28 284.937 174.24 284.797 174.16C284.677 174.06 284.617 173.9 284.617 173.68C284.617 173.36 284.697 173.06 284.857 172.78C285.037 172.5 285.127 172.2 285.127 171.88C285.127 171.72 285.047 171.45 284.887 171.07C284.747 170.69 284.567 170.27 284.347 169.81C284.127 169.33 283.887 168.83 283.627 168.31C283.367 167.79 283.117 167.32 282.877 166.9C282.657 166.46 282.467 166.1 282.307 165.82C282.147 165.54 282.057 165.39 282.037 165.37C281.637 165.51 281.227 165.65 280.807 165.79C280.387 165.93 280.007 166.14 279.667 166.42C279.527 166.56 279.397 166.63 279.277 166.63C279.077 166.63 278.887 166.55 278.707 166.39C278.547 166.23 278.467 166.05 278.467 165.85C278.467 165.63 278.527 165.46 278.647 165.34C278.787 165.2 278.917 165.1 279.037 165.04C279.217 164.94 279.497 164.83 279.877 164.71C280.257 164.59 280.637 164.49 281.017 164.41C281.157 164.37 281.287 164.34 281.407 164.32C281.527 164.28 281.587 164.21 281.587 164.11C281.527 163.91 281.437 163.65 281.317 163.33C281.217 162.99 281.107 162.59 280.987 162.13C280.887 161.67 280.797 161.16 280.717 160.6C280.637 160.02 280.597 159.4 280.597 158.74C280.597 158.02 280.677 157.26 280.837 156.46C281.017 155.66 281.287 154.93 281.647 154.27C282.027 153.59 282.497 153.04 283.057 152.62C283.617 152.18 284.287 151.96 285.067 151.96C285.427 151.96 285.827 152 286.267 152.08C286.707 152.14 287.107 152.24 287.467 152.38C287.847 152.5 288.157 152.66 288.397 152.86C288.657 153.04 288.787 153.25 288.787 153.49ZM297.446 171.04C297.446 171.38 297.326 171.68 297.086 171.94C296.866 172.18 296.576 172.39 296.216 172.57C295.876 172.73 295.496 172.86 295.076 172.96C294.656 173.06 294.256 173.14 293.876 173.2C293.496 173.24 293.156 173.27 292.856 173.29C292.576 173.29 292.396 173.29 292.316 173.29C291.876 173.29 291.536 173.22 291.296 173.08C291.056 172.94 290.936 172.69 290.936 172.33C290.936 172.21 290.946 172.11 290.966 172.03C290.986 171.93 291.066 171.88 291.206 171.88C291.266 171.88 291.366 171.9 291.506 171.94C291.646 171.96 291.756 171.97 291.836 171.97C291.916 171.97 292.166 171.96 292.586 171.94C293.026 171.9 293.486 171.84 293.966 171.76C294.466 171.68 294.906 171.57 295.286 171.43C295.686 171.27 295.886 171.07 295.886 170.83C295.886 170.79 295.676 170.67 295.256 170.47C294.856 170.25 294.246 169.89 293.426 169.39C292.786 168.99 292.336 168.59 292.076 168.19C291.816 167.77 291.686 167.21 291.686 166.51C291.686 166.07 291.776 165.71 291.956 165.43C292.156 165.15 292.416 164.93 292.736 164.77C293.076 164.61 293.456 164.5 293.876 164.44C294.316 164.36 294.776 164.32 295.256 164.32C295.296 164.32 295.416 164.34 295.616 164.38C295.836 164.42 296.066 164.49 296.306 164.59C296.546 164.67 296.756 164.78 296.936 164.92C297.136 165.04 297.236 165.18 297.236 165.34C297.236 165.38 297.196 165.44 297.116 165.52C297.056 165.6 296.946 165.75 296.786 165.97C296.726 165.95 296.616 165.92 296.456 165.88C296.316 165.84 296.146 165.8 295.946 165.76C295.766 165.7 295.576 165.66 295.376 165.64C295.176 165.6 295.016 165.58 294.896 165.58C294.376 165.58 293.956 165.68 293.636 165.88C293.316 166.06 293.156 166.42 293.156 166.96C293.156 167.22 293.256 167.46 293.456 167.68C293.676 167.9 293.946 168.11 294.266 168.31C294.586 168.49 294.926 168.68 295.286 168.88C295.666 169.06 296.016 169.26 296.336 169.48C296.656 169.7 296.916 169.94 297.116 170.2C297.336 170.44 297.446 170.72 297.446 171.04Z" fill="white"/>
<path d="M423.24 120.64C423.28 120.8 423.3 120.94 423.3 121.06C423.3 121.22 423.3 121.34 423.3 121.42C423.3 121.82 423.2 122.1 423 122.26C422.84 122.42 422.5 122.5 421.98 122.5C421.5 122.5 421.18 122.42 421.02 122.26C420.78 122.02 420.46 121.4 420.06 120.4C419.66 119.4 419.24 118.22 418.8 116.86C418.36 115.5 417.92 114.04 417.48 112.48C417.08 110.92 416.72 109.44 416.4 108.04C415.96 108.24 415.36 108.46 414.6 108.7C413.84 108.9 413.06 109.1 412.26 109.3C411.34 109.5 410.38 109.72 409.38 109.96C409.02 111.68 408.74 113.16 408.54 114.4C408.38 115.6 408.22 116.6 408.06 117.4C407.94 118.16 407.76 118.72 407.52 119.08C407.32 119.48 406.98 119.68 406.5 119.68C406.18 119.68 405.9 119.5 405.66 119.14C405.42 118.78 405.3 118.24 405.3 117.52C405.3 117.16 405.4 116.32 405.6 115C405.8 113.68 406.02 112.22 406.26 110.62C406.5 108.98 406.74 107.36 406.98 105.76C407.22 104.16 407.38 102.9 407.46 101.98C407.5 101.5 407.62 100.72 407.82 99.64C408.06 98.56 408.3 97.46 408.54 96.34C408.78 95.18 409.02 94.14 409.26 93.22C409.5 92.3 409.66 91.78 409.74 91.66C410.38 90.18 410.78 88.66 410.94 87.1C411.14 85.54 411.28 84.12 411.36 82.84C411.48 81.52 411.66 80.46 411.9 79.66C412.14 78.82 412.64 78.4 413.4 78.4C413.6 78.4 413.8 78.56 414 78.88C414.24 79.2 414.46 79.58 414.66 80.02C414.86 80.46 415.02 80.9 415.14 81.34C415.26 81.74 415.34 82.06 415.38 82.3C415.42 82.54 415.46 83.02 415.5 83.74C415.58 84.46 415.64 85.26 415.68 86.14C415.76 86.98 415.82 87.82 415.86 88.66C415.94 89.46 416 90.08 416.04 90.52C416.16 91.84 416.34 93.32 416.58 94.96C416.86 96.6 417.14 98.14 417.42 99.58C417.7 101.02 417.96 102.24 418.2 103.24C418.44 104.2 418.62 104.68 418.74 104.68C418.9 104.68 419.1 104.64 419.34 104.56C419.62 104.48 419.88 104.44 420.12 104.44C420.44 104.44 420.6 104.6 420.6 104.92C420.6 105.24 420.52 105.5 420.36 105.7C420.2 105.9 420.02 106.08 419.82 106.24C419.66 106.4 419.5 106.54 419.34 106.66C419.22 106.78 419.16 106.92 419.16 107.08C419.16 107.4 419.34 108.22 419.7 109.54L420.66 113.08C420.74 113.4 420.92 113.94 421.2 114.7C421.48 115.46 421.76 116.26 422.04 117.1C422.36 117.9 422.64 118.64 422.88 119.32C423.12 120.04 423.24 120.48 423.24 120.64ZM409.92 106.9C410.16 106.9 410.6 106.84 411.24 106.72C411.88 106.56 412.54 106.38 413.22 106.18C413.9 105.98 414.5 105.78 415.02 105.58C415.54 105.38 415.8 105.22 415.8 105.1C415.8 104.98 415.72 104.68 415.56 104.2C415.44 103.68 415.28 103.04 415.08 102.28C414.92 101.48 414.74 100.58 414.54 99.58C414.34 98.58 414.16 97.52 414 96.4C413.92 95.68 413.82 94.7 413.7 93.46C413.58 92.22 413.46 91 413.34 89.8C413.22 88.56 413.12 87.5 413.04 86.62C412.96 85.74 412.92 85.3 412.92 85.3C412.92 85.3 412.86 85.6 412.74 86.2C412.62 86.76 412.48 87.4 412.32 88.12C412.2 88.8 412.08 89.46 411.96 90.1C411.88 90.7 411.84 91.04 411.84 91.12V92.8C411.84 92.88 411.78 93.24 411.66 93.88C411.58 94.48 411.46 95.26 411.3 96.22C411.14 97.14 410.96 98.16 410.76 99.28C410.6 100.36 410.44 101.4 410.28 102.4C410.12 103.4 409.98 104.3 409.86 105.1C409.78 105.86 409.74 106.38 409.74 106.66C409.74 106.82 409.8 106.9 409.92 106.9ZM445.395 97.6C445.395 98.28 445.035 98.94 444.315 99.58C443.635 100.22 442.875 100.82 442.035 101.38C441.195 101.9 440.395 102.34 439.635 102.7C438.915 103.02 438.495 103.2 438.375 103.24C437.895 103.44 437.655 103.66 437.655 103.9C437.655 104.06 437.815 104.16 438.135 104.2C438.495 104.2 439.095 104.36 439.935 104.68C440.415 104.84 440.935 105.06 441.495 105.34C442.055 105.58 442.575 105.92 443.055 106.36C443.535 106.76 443.935 107.28 444.255 107.92C444.575 108.52 444.735 109.26 444.735 110.14C444.735 111.06 444.395 111.94 443.715 112.78C443.035 113.62 442.195 114.36 441.195 115C440.235 115.64 439.175 116.16 438.015 116.56C436.895 116.92 435.875 117.1 434.955 117.1C434.395 117.1 433.815 117.06 433.215 116.98C432.655 116.86 432.115 116.7 431.595 116.5C431.115 116.3 430.715 116.04 430.395 115.72C430.075 115.4 429.915 115 429.915 114.52C429.915 114.28 429.995 113.98 430.155 113.62C430.355 113.22 430.555 112.92 430.755 112.72C431.235 113.16 431.775 113.5 432.375 113.74C433.015 113.98 433.815 114.1 434.775 114.1C435.415 114.1 436.135 113.98 436.935 113.74C437.775 113.46 438.555 113.12 439.275 112.72C439.995 112.28 440.595 111.8 441.075 111.28C441.555 110.72 441.795 110.14 441.795 109.54C441.795 108.7 441.375 108.1 440.535 107.74C439.695 107.38 438.775 107.08 437.775 106.84C436.775 106.56 435.855 106.26 435.015 105.94C434.175 105.58 433.755 104.98 433.755 104.14C433.755 103.58 434.155 103.02 434.955 102.46C435.795 101.9 436.715 101.36 437.715 100.84C438.715 100.32 439.615 99.84 440.415 99.4C441.255 98.92 441.675 98.48 441.675 98.08C441.675 97.8 441.415 97.66 440.895 97.66C440.255 97.66 439.555 97.76 438.795 97.96C438.035 98.16 437.295 98.38 436.575 98.62C435.895 98.86 435.255 99.08 434.655 99.28C434.095 99.48 433.675 99.58 433.395 99.58C432.835 99.58 432.455 99.48 432.255 99.28C432.095 99.08 432.015 98.74 432.015 98.26C432.015 97.98 432.215 97.72 432.615 97.48C433.015 97.2 433.515 96.94 434.115 96.7C434.755 96.46 435.435 96.26 436.155 96.1C436.915 95.9 437.635 95.74 438.315 95.62C438.995 95.46 439.595 95.34 440.115 95.26C440.675 95.18 441.055 95.14 441.255 95.14C441.535 95.14 441.895 95.18 442.335 95.26C442.815 95.3 443.275 95.42 443.715 95.62C444.155 95.78 444.535 96.02 444.855 96.34C445.215 96.66 445.395 97.08 445.395 97.6Z" fill="white"/>
<path d="M399.68 145.95C399.68 146.15 399.54 146.32 399.26 146.46C399 146.58 398.65 146.64 398.21 146.64C397.83 146.64 397.23 146.6 396.41 146.52C395.61 146.44 394.76 146.31 393.86 146.13C392.96 145.95 392.1 145.73 391.28 145.47C390.48 145.19 389.89 144.86 389.51 144.48C389.55 144.64 389.62 144.86 389.72 145.14C389.82 145.4 389.93 145.69 390.05 146.01C390.27 146.57 390.47 147.14 390.65 147.72C390.85 148.28 390.95 148.73 390.95 149.07C390.95 149.71 390.9 150.19 390.8 150.51C390.72 150.85 390.53 151.02 390.23 151.02C389.99 151.02 389.82 150.92 389.72 150.72C389.62 150.52 389.57 150.28 389.57 150C389.57 149.98 389.57 149.93 389.57 149.85C389.57 149.77 389.58 149.54 389.6 149.16C389.6 149 389.59 148.84 389.57 148.68C389.55 148.52 389.52 148.38 389.48 148.26C389.16 147.48 388.86 146.7 388.58 145.92C388.32 145.12 388.07 144.24 387.83 143.28C387.77 143.08 387.7 142.83 387.62 142.53C387.56 142.21 387.5 141.8 387.44 141.3C387.38 140.78 387.33 140.15 387.29 139.41C387.25 138.65 387.23 137.73 387.23 136.65C387.23 135.81 387.3 135.17 387.44 134.73C387.58 134.27 387.75 134.04 387.95 134.04C388.13 134.04 388.28 134.18 388.4 134.46C388.52 134.72 388.58 134.97 388.58 135.21C388.58 135.87 388.57 136.38 388.55 136.74C388.55 137.1 388.55 137.36 388.55 137.52C388.55 138.14 388.58 138.76 388.64 139.38C388.7 139.98 388.77 140.54 388.85 141.06C388.93 141.66 389.03 142.23 389.15 142.77C389.39 142.27 389.65 141.74 389.93 141.18C390.23 140.6 390.54 140.03 390.86 139.47C391.18 138.89 391.5 138.32 391.82 137.76C392.14 137.2 392.45 136.67 392.75 136.17C392.95 135.83 393.17 135.54 393.41 135.3C393.67 135.06 393.91 134.94 394.13 134.94C394.29 134.94 394.47 135.01 394.67 135.15C394.87 135.27 394.97 135.44 394.97 135.66C394.97 135.72 394.96 135.79 394.94 135.87C394.92 135.93 394.9 135.98 394.88 136.02C394.78 136.18 394.66 136.34 394.52 136.5C394.4 136.66 394.29 136.82 394.19 136.98C393.87 137.44 393.51 137.96 393.11 138.54C392.71 139.12 392.33 139.7 391.97 140.28C391.63 140.84 391.34 141.37 391.1 141.87C390.86 142.37 390.74 142.77 390.74 143.07C390.74 143.39 390.93 143.67 391.31 143.91C391.69 144.15 392.16 144.36 392.72 144.54C393.28 144.7 393.89 144.84 394.55 144.96C395.23 145.06 395.86 145.15 396.44 145.23C397.02 145.29 397.51 145.34 397.91 145.38C398.33 145.4 398.56 145.41 398.6 145.41C399.06 145.41 399.35 145.45 399.47 145.53C399.61 145.59 399.68 145.73 399.68 145.95ZM409.603 146.85C409.623 146.89 409.633 146.95 409.633 147.03C409.633 147.15 409.543 147.33 409.363 147.57C409.303 147.65 409.173 147.78 408.973 147.96C408.773 148.14 408.503 148.32 408.163 148.5C407.823 148.68 407.403 148.84 406.903 148.98C406.423 149.12 405.853 149.19 405.193 149.19C404.733 149.19 404.283 149.09 403.843 148.89C403.403 148.67 403.013 148.36 402.673 147.96C402.333 147.54 402.053 147.03 401.833 146.43C401.613 145.81 401.503 145.09 401.503 144.27C401.503 143.49 401.603 142.76 401.803 142.08C402.003 141.4 402.253 140.8 402.553 140.28C402.873 139.76 403.223 139.35 403.603 139.05C403.983 138.75 404.353 138.6 404.713 138.6C405.033 138.6 405.353 138.67 405.673 138.81C406.013 138.93 406.313 139.09 406.573 139.29C406.853 139.49 407.073 139.72 407.233 139.98C407.393 140.22 407.473 140.47 407.473 140.73C407.473 141.03 407.333 141.34 407.053 141.66C406.793 141.98 406.473 142.28 406.093 142.56C405.713 142.82 405.333 143.04 404.953 143.22C404.573 143.38 404.273 143.46 404.053 143.46C403.933 143.46 403.823 143.41 403.723 143.31C403.643 143.19 403.603 143.05 403.603 142.89C403.603 142.61 403.723 142.39 403.963 142.23C404.223 142.07 404.503 141.93 404.803 141.81C405.103 141.67 405.373 141.51 405.613 141.33C405.873 141.15 406.003 140.9 406.003 140.58C406.003 140.54 405.953 140.44 405.853 140.28C405.753 140.12 405.483 140.04 405.043 140.04C404.843 140.04 404.613 140.16 404.353 140.4C404.093 140.62 403.843 140.93 403.603 141.33C403.363 141.71 403.163 142.17 403.003 142.71C402.843 143.23 402.763 143.8 402.763 144.42C402.763 144.94 402.853 145.41 403.033 145.83C403.233 146.25 403.483 146.61 403.783 146.91C404.083 147.19 404.433 147.41 404.833 147.57C405.233 147.73 405.643 147.81 406.063 147.81C406.363 147.81 406.683 147.75 407.023 147.63C407.383 147.49 407.713 147.35 408.013 147.21C408.333 147.05 408.603 146.91 408.823 146.79C409.063 146.65 409.213 146.58 409.273 146.58C409.333 146.58 409.393 146.61 409.453 146.67C409.533 146.73 409.583 146.79 409.603 146.85ZM420.062 146.85C420.082 146.89 420.092 146.95 420.092 147.03C420.092 147.15 420.002 147.33 419.822 147.57C419.762 147.65 419.632 147.78 419.432 147.96C419.232 148.14 418.962 148.32 418.622 148.5C418.282 148.68 417.862 148.84 417.362 148.98C416.882 149.12 416.312 149.19 415.652 149.19C415.192 149.19 414.742 149.09 414.302 148.89C413.862 148.67 413.472 148.36 413.132 147.96C412.792 147.54 412.512 147.03 412.292 146.43C412.072 145.81 411.962 145.09 411.962 144.27C411.962 143.49 412.062 142.76 412.262 142.08C412.462 141.4 412.712 140.8 413.012 140.28C413.332 139.76 413.682 139.35 414.062 139.05C414.442 138.75 414.812 138.6 415.172 138.6C415.492 138.6 415.812 138.67 416.132 138.81C416.472 138.93 416.772 139.09 417.032 139.29C417.312 139.49 417.532 139.72 417.692 139.98C417.852 140.22 417.932 140.47 417.932 140.73C417.932 141.03 417.792 141.34 417.512 141.66C417.252 141.98 416.932 142.28 416.552 142.56C416.172 142.82 415.792 143.04 415.412 143.22C415.032 143.38 414.732 143.46 414.512 143.46C414.392 143.46 414.282 143.41 414.182 143.31C414.102 143.19 414.062 143.05 414.062 142.89C414.062 142.61 414.182 142.39 414.422 142.23C414.682 142.07 414.962 141.93 415.262 141.81C415.562 141.67 415.832 141.51 416.072 141.33C416.332 141.15 416.462 140.9 416.462 140.58C416.462 140.54 416.412 140.44 416.312 140.28C416.212 140.12 415.942 140.04 415.502 140.04C415.302 140.04 415.072 140.16 414.812 140.4C414.552 140.62 414.302 140.93 414.062 141.33C413.822 141.71 413.622 142.17 413.462 142.71C413.302 143.23 413.222 143.8 413.222 144.42C413.222 144.94 413.312 145.41 413.492 145.83C413.692 146.25 413.942 146.61 414.242 146.91C414.542 147.19 414.892 147.41 415.292 147.57C415.692 147.73 416.102 147.81 416.522 147.81C416.822 147.81 417.142 147.75 417.482 147.63C417.842 147.49 418.172 147.35 418.472 147.21C418.792 147.05 419.062 146.91 419.282 146.79C419.522 146.65 419.672 146.58 419.732 146.58C419.792 146.58 419.852 146.61 419.912 146.67C419.992 146.73 420.042 146.79 420.062 146.85ZM431.181 146.31C431.181 146.43 431.141 146.55 431.061 146.67C430.981 146.79 430.881 146.9 430.761 147C430.661 147.1 430.541 147.19 430.401 147.27C430.281 147.33 430.171 147.36 430.071 147.36C429.731 147.36 429.291 147.29 428.751 147.15C428.231 146.99 427.811 146.75 427.491 146.43C427.151 146.09 426.851 145.69 426.591 145.23C426.331 144.75 426.041 144.05 425.721 143.13C425.501 144.01 425.241 144.88 424.941 145.74C424.661 146.6 424.201 147.39 423.561 148.11C423.521 148.15 423.461 148.17 423.381 148.17C423.241 148.17 423.091 148.1 422.931 147.96C422.771 147.82 422.691 147.68 422.691 147.54C422.691 147.4 422.671 147.08 422.631 146.58C422.611 146.06 422.581 145.49 422.541 144.87C422.501 144.23 422.461 143.59 422.421 142.95C422.401 142.29 422.391 141.75 422.391 141.33C422.391 141.13 422.401 140.87 422.421 140.55C422.441 140.21 422.501 139.92 422.601 139.68C422.621 139.64 422.691 139.56 422.811 139.44C422.951 139.32 423.101 139.26 423.261 139.26C423.401 139.26 423.481 139.35 423.501 139.53C423.521 139.71 423.531 139.91 423.531 140.13V144.87C423.531 144.97 423.541 145.11 423.561 145.29C423.601 145.47 423.651 145.6 423.711 145.68C423.931 145.2 424.131 144.64 424.311 144C424.511 143.34 424.701 142.72 424.881 142.14C425.061 141.54 425.241 141.04 425.421 140.64C425.601 140.22 425.781 140.01 425.961 140.01C426.161 140.01 426.321 140.05 426.441 140.13C426.561 140.21 426.661 140.37 426.741 140.61C426.841 141.19 426.921 141.71 426.981 142.17C427.041 142.61 427.111 143.01 427.191 143.37C427.291 143.73 427.421 144.07 427.581 144.39C427.761 144.69 428.001 144.97 428.301 145.23C428.581 145.49 428.891 145.68 429.231 145.8C429.591 145.92 429.901 145.98 430.161 145.98C430.281 145.98 430.411 145.96 430.551 145.92C430.691 145.86 430.791 145.83 430.851 145.83C430.931 145.83 431.001 145.9 431.061 146.04C431.141 146.18 431.181 146.27 431.181 146.31ZM442.598 145.02C442.598 145.2 442.478 145.39 442.238 145.59C441.998 145.79 441.718 145.98 441.398 146.16C441.078 146.32 440.748 146.46 440.408 146.58C440.088 146.7 439.848 146.76 439.688 146.76C439.508 146.76 439.308 146.71 439.088 146.61C438.888 146.51 438.688 146.39 438.488 146.25C438.308 146.11 438.148 145.98 438.008 145.86C437.868 145.74 437.778 145.66 437.738 145.62C437.678 145.68 437.588 145.8 437.468 145.98C437.348 146.16 437.198 146.36 437.018 146.58C436.858 146.78 436.678 146.96 436.478 147.12C436.298 147.28 436.108 147.36 435.908 147.36C435.388 147.36 434.938 147.08 434.558 146.52C434.178 145.96 433.858 145.32 433.598 144.6C433.358 143.88 433.168 143.19 433.028 142.53C432.908 141.85 432.848 141.39 432.848 141.15C432.848 141.01 432.918 140.9 433.058 140.82C433.218 140.72 433.338 140.67 433.418 140.67C433.698 140.67 433.888 140.77 433.988 140.97C434.088 141.15 434.138 141.35 434.138 141.57C434.138 141.75 434.188 142.07 434.288 142.53C434.408 142.99 434.548 143.46 434.708 143.94C434.868 144.42 435.038 144.85 435.218 145.23C435.398 145.59 435.558 145.77 435.698 145.77C435.958 145.77 436.178 145.61 436.358 145.29C436.558 144.95 436.718 144.57 436.838 144.15C436.958 143.71 437.048 143.3 437.108 142.92C437.168 142.52 437.198 142.26 437.198 142.14C437.198 142.12 437.198 142.06 437.198 141.96C437.218 141.84 437.238 141.72 437.258 141.6C437.278 141.48 437.288 141.37 437.288 141.27C437.308 141.17 437.318 141.1 437.318 141.06C437.318 140.92 437.288 140.83 437.228 140.79C437.168 140.73 437.138 140.62 437.138 140.46C437.138 140.34 437.198 140.23 437.318 140.13C437.438 140.01 437.698 139.95 438.098 139.95C438.258 139.95 438.378 140 438.458 140.1C438.558 140.18 438.628 140.28 438.668 140.4C438.708 140.52 438.728 140.64 438.728 140.76C438.748 140.86 438.758 140.93 438.758 140.97C438.758 140.99 438.748 141.13 438.728 141.39C438.708 141.65 438.688 141.94 438.668 142.26C438.668 142.56 438.658 142.85 438.638 143.13C438.618 143.41 438.608 143.58 438.608 143.64C438.608 143.7 438.638 143.82 438.698 144C438.758 144.18 438.828 144.37 438.908 144.57C439.008 144.75 439.118 144.92 439.238 145.08C439.358 145.22 439.488 145.29 439.628 145.29C439.868 145.29 440.088 145.26 440.288 145.2C440.508 145.12 440.708 145.04 440.888 144.96C441.088 144.86 441.268 144.78 441.428 144.72C441.588 144.64 441.738 144.6 441.878 144.6C442.058 144.6 442.218 144.64 442.358 144.72C442.518 144.8 442.598 144.9 442.598 145.02ZM451.993 135.78C451.993 137.08 451.833 138.22 451.513 139.2C451.213 140.18 450.863 141.05 450.463 141.81C450.083 142.55 449.703 143.22 449.323 143.82C448.963 144.4 448.723 144.96 448.603 145.5C448.503 145.86 448.283 146.04 447.943 146.04C447.903 146.04 447.873 146.04 447.853 146.04C447.833 146.02 447.803 146.01 447.763 146.01C447.903 146.35 448.113 146.74 448.393 147.18C448.673 147.6 448.953 148.03 449.233 148.47C449.513 148.91 449.753 149.34 449.953 149.76C450.173 150.18 450.283 150.54 450.283 150.84C450.283 151 450.173 151.15 449.953 151.29C449.753 151.45 449.573 151.53 449.413 151.53C449.333 151.53 449.273 151.48 449.233 151.38C449.033 150.66 448.663 149.89 448.123 149.07C447.583 148.25 447.023 147.33 446.443 146.31C445.883 145.29 445.383 144.14 444.943 142.86C444.503 141.58 444.283 140.13 444.283 138.51C444.283 137.83 444.313 137.26 444.373 136.8C444.453 136.32 444.663 136.08 445.003 136.08C445.203 136.08 445.343 136.14 445.423 136.26C445.503 136.38 445.543 136.51 445.543 136.65C445.543 138.47 445.713 140.07 446.053 141.45C446.393 142.83 446.773 143.9 447.193 144.66L447.703 143.88C448.223 143.08 448.673 142.38 449.053 141.78C449.433 141.16 449.743 140.56 449.983 139.98C450.223 139.38 450.393 138.77 450.493 138.15C450.613 137.53 450.673 136.81 450.673 135.99C450.673 135.77 450.643 135.53 450.583 135.27C450.543 135.01 450.463 134.78 450.343 134.58C450.243 134.36 450.113 134.18 449.953 134.04C449.793 133.9 449.593 133.83 449.353 133.83C449.033 133.83 448.543 133.92 447.883 134.1C447.243 134.28 446.583 134.52 445.903 134.82C445.223 135.12 444.603 135.46 444.043 135.84C443.483 136.2 443.143 136.57 443.023 136.95C443.003 136.99 442.973 137.04 442.933 137.1C442.893 137.16 442.853 137.19 442.813 137.19C442.673 137.19 442.523 137.08 442.363 136.86C442.203 136.64 442.123 136.45 442.123 136.29C442.123 135.93 442.283 135.58 442.603 135.24C442.923 134.9 443.323 134.59 443.803 134.31C444.303 134.03 444.853 133.78 445.453 133.56C446.053 133.32 446.633 133.13 447.193 132.99C447.753 132.83 448.253 132.71 448.693 132.63C449.153 132.53 449.483 132.48 449.683 132.48C450.003 132.48 450.303 132.57 450.583 132.75C450.883 132.93 451.133 133.17 451.333 133.47C451.533 133.77 451.693 134.12 451.813 134.52C451.933 134.92 451.993 135.34 451.993 135.78ZM456.266 136.2C456.266 136.24 456.196 136.32 456.056 136.44C455.916 136.56 455.746 136.69 455.546 136.83C455.366 136.95 455.176 137.06 454.976 137.16C454.776 137.26 454.616 137.31 454.496 137.31C454.416 137.31 454.306 137.31 454.166 137.31C454.046 137.29 453.916 137.25 453.776 137.19C453.656 137.13 453.546 137.05 453.446 136.95C453.346 136.83 453.296 136.68 453.296 136.5C453.296 136.22 453.396 135.96 453.596 135.72C453.796 135.46 454.056 135.33 454.376 135.33C454.436 135.33 454.566 135.36 454.766 135.42C454.986 135.46 455.206 135.52 455.426 135.6C455.646 135.68 455.836 135.77 455.996 135.87C456.176 135.97 456.266 136.08 456.266 136.2ZM457.256 147.42C457.256 147.56 457.146 147.68 456.926 147.78C456.726 147.88 456.576 147.93 456.476 147.93C456.276 147.93 456.096 147.8 455.936 147.54C455.776 147.28 455.636 146.98 455.516 146.64C455.396 146.3 455.296 145.98 455.216 145.68C455.136 145.36 455.076 145.14 455.036 145.02C454.976 144.82 454.896 144.58 454.796 144.3C454.696 144.02 454.596 143.75 454.496 143.49C454.416 143.23 454.346 143 454.286 142.8C454.226 142.6 454.196 142.49 454.196 142.47C454.196 142.19 454.246 141.93 454.346 141.69C454.466 141.45 454.606 141.33 454.766 141.33C454.946 141.33 455.136 141.47 455.336 141.75C455.536 142.03 455.726 142.39 455.906 142.83C456.106 143.25 456.286 143.72 456.446 144.24C456.606 144.74 456.746 145.22 456.866 145.68C456.986 146.12 457.076 146.51 457.136 146.85C457.216 147.17 457.256 147.36 457.256 147.42ZM467.914 147.21C467.914 147.59 467.794 147.85 467.554 147.99C467.334 148.13 467.094 148.2 466.834 148.2C466.374 148.2 465.854 148 465.274 147.6C464.694 147.18 464.084 146.71 463.444 146.19C463.424 146.23 463.364 146.45 463.264 146.85C463.184 147.23 463.064 147.65 462.904 148.11C462.764 148.57 462.584 148.99 462.364 149.37C462.144 149.75 461.894 149.94 461.614 149.94C461.414 149.94 461.254 149.87 461.134 149.73C461.014 149.57 460.954 149.46 460.954 149.4C460.954 149.26 461.024 149 461.164 148.62C461.304 148.22 461.454 147.8 461.614 147.36C461.774 146.9 461.924 146.47 462.064 146.07C462.204 145.67 462.274 145.38 462.274 145.2C462.274 145.12 462.114 144.87 461.794 144.45C461.474 144.03 461.124 143.54 460.744 142.98C460.364 142.4 460.014 141.79 459.694 141.15C459.374 140.51 459.214 139.92 459.214 139.38C459.214 139.24 459.274 139.1 459.394 138.96C459.514 138.82 459.624 138.75 459.724 138.75C459.844 138.75 460.004 138.8 460.204 138.9C460.424 138.98 460.554 139.1 460.594 139.26C460.794 139.92 461.054 140.63 461.374 141.39C461.694 142.13 462.174 142.85 462.814 143.55C462.874 143.33 462.944 143.03 463.024 142.65C463.104 142.27 463.194 141.86 463.294 141.42C463.394 140.98 463.494 140.54 463.594 140.1C463.714 139.66 463.824 139.26 463.924 138.9C464.044 138.54 464.154 138.25 464.254 138.03C464.354 137.81 464.454 137.7 464.554 137.7C464.654 137.7 464.804 137.74 465.004 137.82C465.224 137.88 465.334 138.02 465.334 138.24C465.334 138.24 465.304 138.41 465.244 138.75C465.184 139.07 465.104 139.46 465.004 139.92C464.904 140.38 464.794 140.88 464.674 141.42C464.554 141.94 464.434 142.41 464.314 142.83C464.294 142.89 464.254 143 464.194 143.16C464.154 143.32 464.104 143.49 464.044 143.67C464.004 143.85 463.964 144.02 463.924 144.18C463.884 144.32 463.864 144.41 463.864 144.45C463.864 144.63 464.004 144.85 464.284 145.11C464.584 145.35 464.914 145.59 465.274 145.83C465.634 146.05 465.974 146.24 466.294 146.4C466.634 146.56 466.844 146.64 466.924 146.64C466.984 146.64 467.064 146.63 467.164 146.61C467.264 146.59 467.344 146.58 467.404 146.58C467.564 146.58 467.684 146.67 467.764 146.85C467.864 147.03 467.914 147.15 467.914 147.21Z" fill="white"/>
<circle cx="129.5" cy="68.5" r="5.5" fill="#820623"/>
<circle cx="129.5" cy="218.5" r="5.5" fill="#820623"/>
<circle cx="129.5" cy="367.5" r="5.5" fill="#820623"/>
<circle cx="280.5" cy="68.5" r="5.5" fill="#820623"/>
<circle cx="280.5" cy="218.5" r="5.5" fill="#820623"/>
<circle cx="280.5" cy="367.5" r="5.5" fill="#820623"/>
<circle cx="431.5" cy="68.5" r="5.5" fill="#820623"/>
<circle cx="431.5" cy="218.5" r="5.5" fill="#820623"/>
<circle cx="431.5" cy="367.5" r="5.5" fill="#820623"/>
</svg>
