<svg width="397" height="1191" viewBox="0 0 397 1191" fill="none" xmlns="http://www.w3.org/2000/svg">
<path d="M125.754 539H266.17L397 1110H0L125.754 539Z" fill="#FFF2E5"/>
<ellipse cx="200.5" cy="582.5" rx="115.5" ry="6.5" fill="#482222"/>
<ellipse cx="200.5" cy="570" rx="24.5" ry="19" fill="#FFD6B0"/>
<path d="M133.5 403H263L316 582H85L133.5 403Z" fill="#EDEDED"/>
<circle cx="198" cy="348" r="11" fill="#482222"/>
<circle cx="198" cy="370" r="11" fill="#482222"/>
<circle cx="198" cy="392" r="11" fill="#482222"/>
<rect x="194" width="9" height="338" fill="#482222"/>
<path d="M397 1110C397 1154.74 308.129 1191 198.5 1191C88.8715 1191 0 1154.74 0 1110C0 1110 88.8715 1029 198.5 1029C308.129 1029 397 1110 397 1110Z" fill="#FFF2E5"/>
</svg>
