<svg width="2115" height="1317" viewBox="0 0 2115 1317" fill="none" xmlns="http://www.w3.org/2000/svg">
<rect y="577" width="2115" height="740" fill="#FFD6B0"/>
<rect x="5" y="1137" width="518.75" height="175" fill="#FFD6B0" stroke="#F5C89D" stroke-width="10"/>
<rect x="533.75" y="1137" width="518.75" height="175" fill="#FFD6B0" stroke="#F5C89D" stroke-width="10"/>
<rect x="1062.5" y="1137" width="518.75" height="175" fill="#FFD6B0" stroke="#F5C89D" stroke-width="10"/>
<rect x="1591.25" y="1137" width="518.75" height="175" fill="#FFD6B0" stroke="#F5C89D" stroke-width="10"/>
<rect x="5" y="767" width="518.75" height="175" fill="#FFD6B0" stroke="#F5C89D" stroke-width="10"/>
<rect x="533.75" y="767" width="518.75" height="175" fill="#FFD6B0" stroke="#F5C89D" stroke-width="10"/>
<rect x="1062.5" y="767" width="518.75" height="175" fill="#FFD6B0" stroke="#F5C89D" stroke-width="10"/>
<rect x="1591.25" y="767" width="518.75" height="175" fill="#FFD6B0" stroke="#F5C89D" stroke-width="10"/>
<rect x="5" y="952" width="254.375" height="175" fill="#FFD6B0" stroke="#F5C89D" stroke-width="10"/>
<rect x="1854.57" y="952" width="255.432" height="175" fill="#FFD6B0" stroke="#F5C89D" stroke-width="10"/>
<rect x="269.375" y="952" width="518.75" height="175" fill="#FFD6B0" stroke="#F5C89D" stroke-width="10"/>
<rect x="798.125" y="952" width="518.75" height="175" fill="#FFD6B0" stroke="#F5C89D" stroke-width="10"/>
<rect x="1326.88" y="952" width="518.75" height="175" fill="#FFD6B0" stroke="#F5C89D" stroke-width="10"/>
<rect x="5" y="582" width="254.375" height="175" fill="#FFD6B0" stroke="#F5C89D" stroke-width="10"/>
<rect x="1854.57" y="582" width="255.432" height="175" fill="#FFD6B0" stroke="#F5C89D" stroke-width="10"/>
<rect x="269.375" y="582" width="518.75" height="175" fill="#FFD6B0" stroke="#F5C89D" stroke-width="10"/>
<rect x="798.125" y="582" width="518.75" height="175" fill="#FFD6B0" stroke="#F5C89D" stroke-width="10"/>
<rect x="1326.88" y="582" width="518.75" height="175" fill="#FFD6B0" stroke="#F5C89D" stroke-width="10"/>
<ellipse cx="1056.5" cy="946.5" rx="657.5" ry="186.5" fill="#3B342E"/>
<rect x="1323.26" y="493.606" width="46.5002" height="579.106" rx="20" transform="rotate(-30.5072 1323.26 493.606)" fill="#CC4308"/>
<ellipse cx="1456.59" cy="657.887" rx="34.4103" ry="14.5" transform="rotate(-52.5615 1456.59 657.887)" fill="#A93908"/>
<ellipse cx="1461.06" cy="702.239" rx="37.0169" ry="15.9301" transform="rotate(-52.5615 1461.06 702.239)" fill="#A93908"/>
<rect width="46.5002" height="578.704" rx="20" transform="matrix(0.861565 0.507647 0.507647 -0.861565 1263 968.591)" fill="#CC4308"/>
<ellipse cx="1418.41" cy="605.663" rx="28.5" ry="14.5" fill="#A93908"/>
<ellipse cx="1501.41" cy="605.663" rx="28.5" ry="14.5" fill="#A93908"/>
<rect x="502.26" y="491.606" width="46.5002" height="579.106" rx="20" transform="rotate(-30.5072 502.26 491.606)" fill="#CC4308"/>
<ellipse cx="635.594" cy="655.887" rx="34.4103" ry="14.5" transform="rotate(-52.5615 635.594 655.887)" fill="#A93908"/>
<ellipse cx="640.059" cy="700.239" rx="37.0169" ry="15.9301" transform="rotate(-52.5615 640.059 700.239)" fill="#A93908"/>
<rect width="46.5002" height="578.704" rx="20" transform="matrix(0.861565 0.507647 0.507647 -0.861565 442 966.591)" fill="#CC4308"/>
<ellipse cx="597.407" cy="603.663" rx="28.5" ry="14.5" fill="#A93908"/>
<ellipse cx="680.407" cy="603.663" rx="28.5" ry="14.5" fill="#A93908"/>
<path d="M362 523.047C362 475.932 399.93 437.598 447.042 437.099L1588.75 425.004C1640.62 424.454 1682.69 466.875 1681.71 518.74V518.74C1680.76 568.863 1639.86 609 1589.72 609H447.953C400.482 609 362 570.518 362 523.047V523.047Z" fill="#CC4309"/>
<rect x="362" y="425" width="1318" height="171" rx="85.5" fill="#FF601C"/>
<ellipse cx="706.5" cy="520.5" rx="74.5" ry="33.5" fill="#A93908"/>
<rect x="698" y="117" width="16" height="297" rx="8" fill="#097C3E"/>
<path d="M751.505 168.452C739.526 178.662 724.098 185.438 713.07 172.5C702.042 159.562 712.281 146.699 724.26 136.488C736.239 126.277 759.572 133.982 759.572 133.982C759.572 133.982 763.484 158.241 751.505 168.452Z" fill="#097C3E"/>
<path d="M751.505 245.452C739.526 255.662 724.098 262.438 713.07 249.5C702.042 236.562 712.281 223.699 724.26 213.488C736.239 203.277 759.572 210.982 759.572 210.982C759.572 210.982 763.484 235.241 751.505 245.452Z" fill="#097C3E"/>
<path d="M660.69 204.452C672.669 214.662 688.097 221.438 699.125 208.5C710.153 195.562 699.914 182.699 687.935 172.488C675.956 162.277 652.623 169.982 652.623 169.982C652.623 169.982 648.711 194.241 660.69 204.452Z" fill="#097C3E"/>
<path d="M660.69 281.582C672.669 291.793 688.097 298.568 699.125 285.63C710.153 272.693 699.914 259.829 687.935 249.618C675.956 239.408 652.623 247.112 652.623 247.112C652.623 247.112 648.711 271.372 660.69 281.582Z" fill="#097C3E"/>
<path d="M751.505 322.452C739.526 332.662 724.098 339.438 713.07 326.5C702.042 313.562 712.281 300.699 724.26 290.488C736.239 280.277 759.572 287.982 759.572 287.982C759.572 287.982 763.484 312.241 751.505 322.452Z" fill="#097C3E"/>
<path d="M621 375C621 363.954 629.954 355 641 355H772C783.046 355 792 363.954 792 375V486C792 513.614 769.614 536 742 536H671C643.386 536 621 513.614 621 486V375Z" fill="#3C342E"/>
<path d="M744.5 144.5C744.5 144.5 742.049 151.235 738.5 154.5C734.908 157.805 728 159.5 728 159.5" stroke="#26AF65" stroke-width="3" stroke-linecap="round"/>
<path d="M744.5 224C744.5 224 742.049 230.735 738.5 234C734.908 237.305 728 239 728 239" stroke="#26AF65" stroke-width="3" stroke-linecap="round"/>
<path d="M744.5 301C744.5 301 742.049 307.735 738.5 311C734.908 314.305 728 316 728 316" stroke="#26AF65" stroke-width="3" stroke-linecap="round"/>
<path d="M668 260C668 260 670.451 266.735 674 270C677.592 273.305 684.5 275 684.5 275" stroke="#26AF65" stroke-width="3" stroke-linecap="round"/>
<path d="M668 183C668 183 670.451 189.735 674 193C677.592 196.305 684.5 198 684.5 198" stroke="#26AF65" stroke-width="3" stroke-linecap="round"/>
<path d="M1416.81 450.323L1541.58 461.323L1553.36 596.823L1377.96 575.815L1416.81 450.323Z" fill="#A93908"/>
<path d="M1377.74 461.737L1510.18 448L1582.07 557.449L1405.31 596L1377.74 461.737Z" fill="#A93908"/>
<path d="M1420.78 447.323L1547.78 458.323L1559.78 593.823L1381.23 572.815L1420.78 447.323Z" fill="#DCDBDB"/>
<path d="M1381.28 460.823L1515.78 445.323L1588.78 568.823L1409.28 612.323L1381.28 460.823Z" fill="#EDEDED"/>
<path d="M1438.26 482.411C1438.29 482.567 1438.27 482.735 1438.2 482.913C1438.13 483.092 1438.03 483.263 1437.9 483.426C1437.8 483.584 1437.67 483.735 1437.51 483.878C1437.37 483.989 1437.23 484.058 1437.1 484.086C1436.66 484.179 1436.06 484.209 1435.32 484.175C1434.6 484.109 1433.98 483.912 1433.48 483.582C1432.94 483.232 1432.44 482.793 1431.97 482.264C1431.5 481.709 1430.93 480.876 1430.26 479.764C1430.22 480.972 1430.12 482.179 1429.96 483.383C1429.83 484.582 1429.45 485.74 1428.81 486.855C1428.77 486.918 1428.7 486.961 1428.6 486.983C1428.41 487.021 1428.2 486.971 1427.95 486.833C1427.7 486.694 1427.56 486.533 1427.52 486.351C1427.48 486.168 1427.37 485.756 1427.18 485.115C1427.01 484.442 1426.81 483.706 1426.59 482.909C1426.36 482.085 1426.14 481.261 1425.91 480.437C1425.7 479.581 1425.54 478.879 1425.42 478.331C1425.37 478.07 1425.31 477.728 1425.25 477.305C1425.18 476.856 1425.18 476.461 1425.24 476.121C1425.26 476.063 1425.33 475.94 1425.45 475.75C1425.6 475.555 1425.78 475.435 1425.99 475.391C1426.17 475.353 1426.3 475.448 1426.38 475.678C1426.45 475.907 1426.52 476.165 1426.58 476.452L1427.88 482.636C1427.91 482.767 1427.96 482.947 1428.04 483.176C1428.14 483.4 1428.24 483.556 1428.34 483.643C1428.5 482.957 1428.6 482.171 1428.66 481.287C1428.74 480.371 1428.82 479.509 1428.89 478.703C1428.96 477.871 1429.06 477.169 1429.19 476.598C1429.31 476 1429.48 475.677 1429.72 475.627C1429.98 475.572 1430.2 475.58 1430.38 475.652C1430.55 475.723 1430.73 475.904 1430.9 476.195C1431.19 476.925 1431.44 477.581 1431.64 478.165C1431.84 478.722 1432.04 479.225 1432.25 479.673C1432.48 480.115 1432.74 480.523 1433.04 480.896C1433.35 481.238 1433.74 481.537 1434.21 481.794C1434.64 482.056 1435.1 482.219 1435.58 482.282C1436.08 482.339 1436.5 482.332 1436.84 482.261C1437 482.228 1437.16 482.166 1437.33 482.075C1437.5 481.958 1437.62 481.892 1437.7 481.875C1437.8 481.853 1437.91 481.925 1438.03 482.091C1438.17 482.252 1438.25 482.359 1438.26 482.411ZM1446.52 476.868C1446.64 477.442 1446.68 478.007 1446.63 478.562C1446.58 479.116 1446.47 479.617 1446.29 480.063C1446.11 480.51 1445.87 480.889 1445.55 481.201C1445.25 481.481 1444.9 481.665 1444.48 481.753C1443.75 481.907 1443.13 481.82 1442.63 481.49C1442.12 481.161 1441.69 480.747 1441.34 480.248C1441.02 479.744 1440.76 479.227 1440.57 478.695C1440.39 478.132 1440.28 477.707 1440.22 477.42C1440.12 476.95 1440.07 476.415 1440.08 475.813C1440.11 475.18 1440.19 474.591 1440.32 474.046C1440.48 473.495 1440.68 473.017 1440.92 472.612C1441.16 472.206 1441.45 471.968 1441.79 471.896C1441.87 471.88 1441.99 471.881 1442.16 471.9C1442.35 471.914 1442.55 471.954 1442.76 472.02C1442.96 472.086 1443.14 472.183 1443.31 472.312C1443.5 472.436 1443.64 472.596 1443.74 472.794C1444.03 472.76 1444.34 472.804 1444.66 472.926C1444.99 473.048 1445.18 473.158 1445.22 473.257C1445.58 473.892 1445.85 474.543 1446.04 475.21C1446.27 475.872 1446.42 476.425 1446.52 476.868ZM1444.61 476.535C1444.52 476.144 1444.4 475.747 1444.23 475.346C1444.06 474.919 1443.81 474.509 1443.48 474.115C1443.44 474.152 1443.37 474.179 1443.3 474.195C1443.19 474.217 1443.1 474.223 1443.01 474.214C1442.96 474.199 1442.9 474.197 1442.85 474.208C1442.54 474.274 1442.31 474.417 1442.16 474.638C1442.01 474.833 1441.92 475.085 1441.87 475.395C1441.85 475.672 1441.86 475.97 1441.9 476.289C1441.94 476.607 1441.99 476.91 1442.05 477.197C1442.11 477.484 1442.19 477.807 1442.29 478.167C1442.39 478.501 1442.51 478.816 1442.66 479.113C1442.83 479.404 1443.02 479.65 1443.22 479.852C1443.42 480.028 1443.65 480.088 1443.91 480.033C1444.17 479.978 1444.37 479.801 1444.5 479.502C1444.62 479.176 1444.69 478.82 1444.72 478.432C1444.75 478.045 1444.74 477.679 1444.69 477.334C1444.67 476.958 1444.64 476.692 1444.61 476.535ZM1458.91 464.609C1458.65 465.072 1458.25 465.565 1457.7 466.088C1457.16 466.586 1456.6 467.057 1456.04 467.502C1455.48 467.947 1454.99 468.337 1454.57 468.671C1454.14 468.978 1453.94 469.171 1453.96 469.25C1453.97 469.328 1454.07 469.552 1454.26 469.921C1454.45 470.291 1454.66 470.735 1454.91 471.256C1455.18 471.745 1455.45 472.26 1455.73 472.801C1456 473.342 1456.24 473.823 1456.44 474.245C1456.55 474.495 1456.68 474.82 1456.85 475.221C1457.02 475.622 1457.17 476.026 1457.31 476.432C1457.48 476.833 1457.62 477.198 1457.74 477.526C1457.86 477.828 1457.93 477.992 1457.93 478.018C1458.01 478.41 1458.03 478.828 1457.99 479.273C1457.95 479.718 1457.78 479.971 1457.5 480.031C1457.34 480.064 1457.18 480.029 1457.02 479.926C1456.87 479.823 1456.72 479.705 1456.58 479.57C1456.44 479.409 1456.32 479.256 1456.24 479.111C1456.15 478.965 1456.1 478.853 1456.09 478.775C1456.08 478.723 1456.06 478.645 1456.04 478.54C1456.04 478.43 1456.03 478.31 1456 478.18C1455.9 477.684 1455.67 476.983 1455.31 476.076C1455.2 475.8 1455 475.379 1454.72 474.812C1454.44 474.245 1454.15 473.664 1453.86 473.071C1453.53 472.379 1453.15 471.627 1452.73 470.816C1452.55 470.472 1452.45 470.303 1452.42 470.309C1452.24 470.348 1451.95 470.531 1451.56 470.859C1451.18 471.156 1450.76 471.532 1450.28 471.987C1449.8 472.415 1449.3 472.888 1448.78 473.406C1448.26 473.898 1447.77 474.369 1447.32 474.818C1446.87 475.241 1446.48 475.609 1446.16 475.92C1445.82 476.212 1445.6 476.366 1445.53 476.382C1445.19 476.454 1444.89 476.394 1444.63 476.203C1444.37 476.012 1444.21 475.773 1444.15 475.486C1444.12 475.33 1444.29 475.061 1444.68 474.681C1445.03 474.28 1445.49 473.828 1446.07 473.325C1446.62 472.827 1447.23 472.303 1447.9 471.752C1448.55 471.207 1449.15 470.712 1449.71 470.267C1450.3 469.816 1450.78 469.442 1451.15 469.145C1451.55 468.843 1451.75 468.692 1451.75 468.692C1451.27 467.541 1450.84 466.513 1450.49 465.606C1450.19 464.825 1449.9 464.109 1449.63 463.458C1449.38 462.801 1449.25 462.447 1449.24 462.395C1449.17 462.056 1449.18 461.794 1449.28 461.61C1449.4 461.394 1449.55 461.267 1449.73 461.229C1450.02 461.168 1450.24 461.326 1450.4 461.7C1450.99 463.049 1451.51 464.246 1451.98 465.293C1452.47 466.334 1452.9 467.169 1453.28 467.797C1453.51 467.696 1453.88 467.467 1454.4 467.111C1454.92 466.729 1455.47 466.329 1456.03 465.91C1456.6 465.491 1457.11 465.124 1457.56 464.811C1458.03 464.466 1458.31 464.286 1458.38 464.269C1458.54 464.236 1458.64 464.269 1458.69 464.368C1458.77 464.461 1458.84 464.542 1458.91 464.609ZM1474.78 475.448C1474.81 475.495 1474.84 475.57 1474.86 475.675C1474.9 475.831 1474.83 476.091 1474.66 476.453C1474.6 476.574 1474.47 476.78 1474.26 477.069C1474.05 477.359 1473.75 477.668 1473.35 477.997C1472.96 478.325 1472.45 478.649 1471.84 478.97C1471.25 479.284 1470.53 479.532 1469.67 479.714C1469.07 479.84 1468.45 479.834 1467.82 479.694C1467.19 479.528 1466.59 479.231 1466.04 478.802C1465.48 478.348 1464.98 477.759 1464.52 477.037C1464.07 476.289 1463.72 475.38 1463.5 474.31C1463.28 473.292 1463.21 472.312 1463.29 471.37C1463.36 470.428 1463.52 469.576 1463.77 468.816C1464.05 468.049 1464.39 467.418 1464.8 466.922C1465.22 466.426 1465.66 466.129 1466.13 466.03C1466.54 465.942 1466.98 465.945 1467.44 466.04C1467.91 466.103 1468.35 466.229 1468.74 466.418C1469.16 466.602 1469.51 466.842 1469.79 467.137C1470.07 467.406 1470.24 467.71 1470.31 468.049C1470.4 468.441 1470.3 468.884 1470.02 469.378C1469.77 469.867 1469.44 470.347 1469.02 470.816C1468.59 471.26 1468.16 471.652 1467.71 471.991C1467.26 472.304 1466.89 472.491 1466.6 472.552C1466.45 472.585 1466.29 472.55 1466.13 472.447C1465.99 472.312 1465.9 472.141 1465.86 471.932C1465.78 471.567 1465.88 471.247 1466.15 470.972C1466.44 470.692 1466.77 470.432 1467.13 470.193C1467.48 469.928 1467.79 469.645 1468.05 469.344C1468.34 469.037 1468.44 468.675 1468.35 468.258C1468.34 468.206 1468.25 468.089 1468.08 467.908C1467.9 467.727 1467.53 467.697 1466.95 467.818C1466.69 467.873 1466.43 468.092 1466.15 468.477C1465.87 468.836 1465.63 469.309 1465.43 469.897C1465.22 470.458 1465.09 471.114 1465.03 471.862C1464.96 472.585 1465.01 473.35 1465.18 474.159C1465.33 474.837 1465.57 475.426 1465.92 475.924C1466.3 476.417 1466.73 476.818 1467.2 477.127C1467.67 477.41 1468.19 477.601 1468.75 477.699C1469.32 477.798 1469.87 477.79 1470.42 477.674C1470.81 477.592 1471.21 477.425 1471.62 477.175C1472.06 476.894 1472.45 476.62 1472.8 476.355C1473.17 476.058 1473.49 475.801 1473.74 475.584C1474.02 475.336 1474.19 475.203 1474.27 475.186C1474.35 475.17 1474.44 475.193 1474.53 475.254C1474.65 475.311 1474.73 475.375 1474.78 475.448ZM1486.12 471.952C1486.22 472.395 1486.14 472.82 1485.9 473.225C1485.68 473.599 1485.36 473.952 1484.94 474.286C1484.54 474.588 1484.08 474.863 1483.56 475.109C1483.04 475.355 1482.54 475.569 1482.06 475.752C1481.58 475.908 1481.14 476.041 1480.75 476.15C1480.39 476.227 1480.15 476.276 1480.05 476.298C1479.48 476.419 1479.01 476.421 1478.66 476.305C1478.31 476.188 1478.08 475.895 1477.99 475.425C1477.95 475.269 1477.94 475.136 1477.94 475.026C1477.94 474.89 1478.03 474.802 1478.21 474.764C1478.29 474.747 1478.43 474.746 1478.62 474.76C1478.81 474.747 1478.96 474.73 1479.06 474.708C1479.17 474.686 1479.49 474.604 1480.03 474.463C1480.59 474.289 1481.18 474.085 1481.78 473.848C1482.41 473.606 1482.96 473.342 1483.41 473.055C1483.89 472.736 1484.1 472.42 1484.03 472.107C1484.02 472.055 1483.71 471.956 1483.11 471.81C1482.53 471.633 1481.63 471.332 1480.43 470.905C1479.48 470.559 1478.78 470.161 1478.33 469.711C1477.88 469.234 1477.56 468.539 1477.36 467.626C1477.24 467.052 1477.26 466.557 1477.42 466.143C1477.6 465.722 1477.88 465.364 1478.25 465.067C1478.65 464.765 1479.12 464.517 1479.65 464.323C1480.2 464.098 1480.79 463.919 1481.42 463.787C1481.47 463.776 1481.63 463.769 1481.9 463.766C1482.2 463.758 1482.52 463.786 1482.86 463.85C1483.2 463.889 1483.5 463.974 1483.78 464.108C1484.07 464.209 1484.24 464.364 1484.28 464.573C1484.29 464.625 1484.26 464.714 1484.18 464.841C1484.12 464.962 1484.02 465.188 1483.87 465.519C1483.78 465.509 1483.63 465.5 1483.41 465.492C1483.22 465.478 1482.99 465.473 1482.71 465.476C1482.46 465.447 1482.2 465.447 1481.94 465.476C1481.67 465.479 1481.45 465.497 1481.3 465.53C1480.62 465.673 1480.1 465.919 1479.73 466.268C1479.37 466.591 1479.26 467.104 1479.41 467.809C1479.48 468.148 1479.67 468.434 1479.99 468.666C1480.34 468.892 1480.75 469.092 1481.22 469.265C1481.69 469.412 1482.19 469.566 1482.71 469.728C1483.26 469.858 1483.77 470.023 1484.25 470.222C1484.72 470.421 1485.13 470.662 1485.46 470.947C1485.82 471.199 1486.04 471.534 1486.12 471.952Z" fill="black"/>
<rect x="1200" y="558" width="155" height="9" rx="4.5" fill="#A93908"/>
<rect x="1209" y="546" width="136" height="18" fill="#FF961C"/>
<path d="M1200 555.5L1209 546V564L1200 555.5Z" fill="#F5C89D"/>
<path d="M1345 546H1347C1351.97 546 1356 550.029 1356 555V555C1356 559.971 1351.97 564 1347 564H1345V546Z" fill="#FF85F3"/>
<rect x="1209" y="546" width="136" height="1" fill="black"/>
<rect x="1209" y="551" width="136" height="1" fill="black"/>
<rect x="1209" y="557" width="136" height="1" fill="black"/>
<rect x="1209" y="563" width="136" height="1" fill="black"/>
<path d="M1201.11 555.513C1201.11 555.789 1201.28 556.5 1201 556.5C1200.72 556.5 1200 555.558 1200 555.513C1200 555.467 1200.72 554.5 1201 554.5C1201.28 554.5 1201.11 555.236 1201.11 555.513Z" fill="black"/>
<ellipse cx="792.5" cy="548" rx="62.5" ry="33" fill="#A93908"/>
<rect width="109" height="93" transform="matrix(-1 0 0 1 847 454)" fill="#FFE3E3"/>
<ellipse rx="54.5" ry="19.5" transform="matrix(-1 0 0 1 792.5 454.5)" fill="#FF961C"/>
<ellipse rx="54.5" ry="19.5" transform="matrix(-1 0 0 1 792.5 546.5)" fill="#FFE3E3"/>
<ellipse rx="46.5" ry="16" transform="matrix(-1 0 0 1 792.5 454)" fill="#482222"/>
<path d="M740 483H718V530H740" stroke="#FFE3E3" stroke-width="10" stroke-linejoin="round"/>
<path d="M767.185 421.372C765 410.511 782.87 397 782.87 397C782.87 397 783.08 409.5 786.53 416.593C791.223 426.243 808.309 425.702 806.92 436.186C805.559 446.463 782.87 451 782.87 451C782.87 451 789.265 444.299 789.667 439.053C790.476 428.492 769.28 431.784 767.185 421.372Z" fill="#EDEDED"/>
<path d="M1062.47 512.031C1066.05 518.202 1072.64 522 1079.77 522H1262.23C1269.36 522 1275.95 518.202 1279.53 512.031L1283.59 505.031C1291.32 491.698 1281.7 475 1266.29 475H1075.71C1060.3 475 1050.68 491.698 1058.41 505.031L1062.47 512.031Z" fill="#A93908"/>
<rect x="854" width="634" height="352" rx="10" fill="#030303"/>
<path d="M1079.22 282.034C1080.23 271.8 1088.84 264 1099.12 264H1243.88C1254.16 264 1262.77 271.8 1263.78 282.034L1283.83 485.034C1284.99 496.8 1275.75 507 1263.93 507H1079.07C1067.25 507 1058.01 496.8 1059.17 485.034L1079.22 282.034Z" fill="#030303"/>
<rect x="875" y="20" width="592" height="308" rx="10" fill="#FFE3E3"/>
</svg>
